<?xml version="1.0" standalone="yes"?>

<svg version="1.1" viewBox="0.0 0.0 960.0 720.0" fill="none" stroke="none" stroke-linecap="square" stroke-miterlimit="10" xmlns="http://www.w3.org/2000/svg" xmlns:xlink="http://www.w3.org/1999/xlink"><clipPath id="p.0"><path d="m0 0l960.0 0l0 720.0l-960.0 0l0 -720.0z" clip-rule="nonzero"></path></clipPath><g clip-path="url(#p.0)"><path fill="#2b2d42" fill-opacity="0.0" d="m0 0l960.0 0l0 720.0l-960.0 0z" fill-rule="nonzero"></path><path fill="#2b2d42" d="m351.31177 53.12653c1.1981506 -0.43744278 3.9899292 -3.4164467 5.0629883 -4.312336c1.0730591 -0.89588547 1.3232727 -0.7191582 1.3753357 -1.0629921c0.05203247 -0.3438301 -0.41690063 -0.4584427 -1.0629883 -1.0c-0.64611816 -0.5415573 -1.5739441 -1.2803993 -2.8136597 -2.2493439c-1.2397156 -0.96894073 -2.9580078 -2.3766403 -4.6246643 -3.5643044c-1.666687 -1.187664 -3.6150513 -2.4365692 -5.3753357 -3.5616798c-1.7602844 -1.1251068 -3.3530273 -2.1784782 -5.1863403 -3.1889763c-1.8333435 -1.010498 -4.09494 -2.0616798 -5.8136597 -2.874014c-1.7187195 -0.81233597 -2.9466248 -1.3748913 -4.4986877 -2.0c-1.552063 -0.6251106 -3.3031616 -1.2401581 -4.8136597 -1.7506561c-1.510498 -0.51049995 -2.9475098 -0.94794464 -4.2493286 -1.312336c-1.3018494 -0.36439323 -2.551178 -0.6347332 -3.561676 -0.8740158c-1.010498 -0.23928261 -1.3136597 -0.3534565 -2.5013123 -0.56167984c-1.1876831 -0.20822525 -3.2287903 -0.48950195 -4.624695 -0.68766403c-1.395874 -0.19816399 -2.2506409 -0.3657055 -3.7506409 -0.50131226c-1.5 -0.13560867 -3.7703552 -0.2602806 -5.249359 -0.31233597c-1.4790039 -0.052057266 -2.1977234 0 -3.6246643 0c-1.4269409 0 -3.3433838 -0.07305336 -4.9370117 0c-1.5935974 0.07305336 -2.7913208 0.1675415 -4.6246643 0.43832016c-1.8333435 0.27077866 -4.156616 0.7489052 -6.3753357 1.1863518c-2.2187195 0.4374447 -4.843384 0.9278202 -6.9370117 1.4383202c-2.0935974 0.51049805 -3.8118896 1.0516186 -5.6246643 1.6246719c-1.8127747 0.57305336 -3.741455 1.2926502 -5.251953 1.8136482c-1.510498 0.5209961 -2.5612488 0.83333206 -3.8110352 1.312336c-1.2497864 0.479002 -2.7292175 1.1242352 -3.6876678 1.5616779c-0.95843506 0.4374466 -1.8858185 1.2607193 -2.0629883 1.0629921c-0.1771698 -0.19772339 0.66667175 -1.2909012 1.0 -2.249342c0.33332825 -0.9584427 0.8228302 -2.3867016 1.0 -3.5013123c0.1771698 -1.1146107 0.15660095 -1.9676304 0.06298828 -3.1863518c-0.09361267 -1.2187233 -0.25984192 -2.604988 -0.6246643 -4.125984c-0.36483765 -1.520998 -0.9286957 -3.4269466 -1.5643005 -5.000001c-0.6356201 -1.5730534 -1.374466 -3.0008745 -2.2493439 -4.43832c-0.8748932 -1.4374447 -1.9790039 -3.0196848 -3.0 -4.1863513c-1.0209961 -1.166667 -2.0323792 -1.9908137 -3.1259918 -2.8136487c-1.0936127 -0.8228345 -2.2484741 -1.5608046 -3.4356995 -2.1233594c-1.1872253 -0.5625546 -2.4063873 -0.93919504 -3.6876526 -1.2519684c-1.2812805 -0.3127734 -2.7397308 -0.5205599 -4.0 -0.6246719c-1.2602844 -0.104111984 -2.4365692 -0.06255469 -3.5616913 0c-1.1251068 0.06255467 -2.3761902 0.14610673 -3.1889648 0.37532806c-0.81277466 0.22922134 -1.1251221 0.5415573 -1.6876678 1.0c-0.56256104 0.4584427 -1.2607269 1.1465442 -1.6876678 1.7506561c-0.42694092 0.6041119 -0.71784973 1.1863515 -0.8740082 1.8740156c-0.1561737 0.68766403 -0.1776123 1.7414699 -0.06300354 2.2519689c0.114608765 0.5104985 0.26115417 0.6968503 0.7506561 0.81102324c0.48950195 0.11417389 1.4155731 -0.10498619 2.1863556 -0.12598419c0.7707825 -0.020997047 1.5944824 -0.052493095 2.438324 0c0.8438263 0.05249405 1.8849487 0.17935276 2.6246643 0.31496048c0.73973083 0.13560867 1.220047 0.30096245 1.8136597 0.49868774c0.5936127 0.1977253 1.8420715 0.6041126 1.7480316 0.68766403c-0.094055176 0.08355236 -1.3643951 -0.13429546 -2.3123474 -0.18635178c-0.947937 -0.05205536 -2.146103 -0.094488144 -3.3753204 -0.12598419c-1.2292175 -0.031496048 -2.646103 -0.09405041 -4.0 -0.062992096c-1.3538971 0.031059265 -2.884079 0.09317589 -4.1233673 0.24934387c-1.2392731 0.15616798 -2.3538818 0.44794464 -3.3123322 0.68766403c-0.95843506 0.23972034 -1.6255493 0.39632607 -2.438324 0.7506561c-0.81277466 0.35433102 -1.7405853 0.854331 -2.4383087 1.3753281c-0.69773865 0.520998 -1.2900391 1.1154861 -1.7480316 1.7506561c-0.4580078 0.63517094 -0.7602844 1.2895889 -1.0 2.0603685c-0.23973083 0.77077866 -0.40682983 1.626421 -0.43832397 2.5643044c-0.03149414 0.93788147 0.08267212 2.0734901 0.24934387 3.062992c0.16667175 0.98950005 0.33377075 1.9680653 0.7506561 2.8740158c0.41688538 0.90594864 1.0734863 1.9575672 1.7506561 2.5616798c0.6771698 0.6041107 1.458435 0.9068241 2.3123322 1.0629921c0.8538971 0.15616798 1.884079 0.08223915 2.81102 -0.12598419c0.9269562 -0.20822525 1.781723 -0.6758537 2.7506561 -1.1233597c0.96894836 -0.44750786 2.1045532 -1.0201225 3.0630035 -1.5616798c0.95843506 -0.5415573 1.7292175 -1.0936146 2.6876526 -1.687664c0.9584503 -0.59405136 2.281723 -1.4076996 3.0630035 -1.8766403c0.78126526 -0.46894264 1.1246643 -0.6767292 1.6246643 -0.9370079c0.5 -0.2602806 0.93788147 -0.4790039 1.3753357 -0.62467194c0.43743896 -0.14566994 0.93699646 -0.22834778 1.2493439 -0.24934387c0.31233215 -0.020998001 0.8643799 -0.1679802 0.6246643 0.12335968c-0.23971558 0.29133797 -1.2922058 1.0411186 -2.0629883 1.6246719c-0.7707825 0.5835514 -1.8324585 1.2305336 -2.561676 1.8766403c-0.7292328 0.6461067 -1.5533752 1.3748894 -1.8136597 2.0c-0.26026917 0.6251087 0.0017547607 1.0634289 0.25196838 1.7506561c0.25022888 0.68722534 0.82240295 1.6959743 1.2493439 2.3727036c0.42695618 0.6767273 0.8538971 1.3022747 1.3123474 1.687664c0.45843506 0.38538933 0.834198 0.48906136 1.4383087 0.62467c0.6041107 0.13560867 1.3219604 0.31364822 2.1863556 0.18897629c0.86439514 -0.124671936 2.052063 -0.5306206 3.0 -0.937006c0.9479523 -0.40638733 1.8438263 -1.0638676 2.6876678 -1.5013123c0.8438263 -0.4374466 1.656601 -0.75896835 2.3753204 -1.1233597c0.71873474 -0.36439323 1.4164581 -0.79177666 1.9370117 -1.0629921c0.52056885 -0.27121735 0.7279053 -0.4286976 1.1863556 -0.56430435c0.45843506 -0.13560867 1.0122528 -0.32239723 1.5643005 -0.24934387c0.552063 0.07305336 1.227478 0.21872139 1.7480316 0.68766403c0.52056885 0.46894073 1.0940552 1.3237095 1.3753357 2.1259842c0.28126526 0.8022747 0.33288574 1.9899387 0.31233215 2.6876621c-0.020568848 0.6977272 -0.30052185 1.082241 -0.43569946 1.4986877c-0.13516235 0.4164505 -0.5625458 1.0831146 -0.37532043 1.0c0.18722534 -0.083114624 1.1447906 -1.0301819 1.4986877 -1.4986877c0.35388184 -0.46850204 0.43699646 -0.79133606 0.6246643 -1.312336c0.18766785 -0.5209961 0.3447113 -1.1154842 0.50131226 -1.8136463c0.15660095 -0.698164 0.41732788 -1.5004387 0.43832397 -2.375328c0.020996094 -0.8748913 -0.04156494 -1.9055119 -0.31233215 -2.8740158c-0.27078247 -0.96850395 -0.82240295 -2.0721798 -1.3123474 -2.937008c-0.4899292 -0.86483 -0.99168396 -1.6058617 -1.6272888 -2.2519684c-0.63560486 -0.6461067 -1.3635254 -1.1041126 -2.1863556 -1.6246719c-0.8228302 -0.5205612 -1.8237152 -1.1237984 -2.7506561 -1.4986877c-0.9269409 -0.37489128 -1.7279053 -0.5214348 -2.81102 -0.7506561c-1.0831146 -0.2292223 -2.552063 -0.49956322 -3.6876678 -0.6246729c-1.1356049 -0.12510872 -2.1154785 -0.094488144 -3.1259766 -0.12598419c-1.010498 -0.031496048 -1.9580078 -0.094488144 -2.9370117 -0.062992096c-0.9790039 0.031496048 -1.8534546 0.09536362 -2.9370117 0.25196838c-1.0835571 0.15660572 -2.5122528 0.4689417 -3.5643005 0.687665c-1.052063 0.21872139 -1.8731384 0.37488937 -2.7480316 0.62467194c-0.8748932 0.24978065 -1.7926483 0.6137352 -2.5013123 0.8740158c-0.70866394 0.2602787 -1.2091064 0.4584427 -1.7506561 0.68766403c-0.54156494 0.22922134 -1.3219604 0.6981621 -1.4986877 0.68766403c-0.1767273 -0.010499954 -0.05117798 -0.4278221 0.43832397 -0.7506561c0.48950195 -0.32283592 1.5196838 -0.7699051 2.4986877 -1.1863518c0.9790039 -0.4164486 2.3127747 -0.9164486 3.3753204 -1.3123369c1.062561 -0.39588737 2.062561 -0.78171444 3.0 -1.0629921c0.9374542 -0.2812767 1.7602844 -0.42694664 2.6246796 -0.62467194c0.8643799 -0.1977253 1.7073364 -0.41557312 2.561676 -0.56167984c0.85432434 -0.14610672 1.5643005 -0.24190712 2.5643005 -0.31496048c1.0 -0.07305336 2.3315887 -0.14435673 3.4356995 -0.12335968c1.1041107 0.020998001 2.2410278 0.12423515 3.18898 0.24934387c0.947937 0.12510967 1.7589569 0.2825899 2.4986877 0.50131226c0.7397156 0.2187233 1.1583557 0.45713043 1.939621 0.8110237c0.7812805 0.35389328 1.9046478 0.7808399 2.7480316 1.312336c0.84339905 0.531497 1.6456757 1.2515306 2.3123474 1.8766413c0.6666565 0.6251087 1.1251068 1.1452312 1.6876526 1.8740158c0.56256104 0.72878265 1.2917786 1.7069111 1.6876678 2.4986877c0.39588928 0.79177475 0.53149414 1.491251 0.68766785 2.2519684c0.15615845 0.7607174 0.21784973 1.5831146 0.24934387 2.312336c0.03149414 0.72922134 0.04374695 1.3132095 -0.06036377 2.062992c-0.10411072 0.74978065 -0.27253723 1.5818024 -0.5643158 2.4356956c-0.2917633 0.8538914 -0.7803955 1.9269466 -1.1863403 2.6876621c-0.40596008 0.7607193 -0.1867981 1.2515335 -1.2493439 1.8766403c-1.062561 0.6251106 -3.5424347 1.2178497 -5.125992 1.8740158c-1.5835571 0.6561699 -0.8442688 0.115047455 -4.3753204 2.062992c-3.531067 1.9479446 -11.26947 6.332897 -16.811035 9.624672c-5.5415497 3.2917786 -11.813202 7.251095 -16.438309 10.125984c-4.625122 2.8748932 -8.1141815 5.1443596 -11.312347 7.1233635c-3.1981506 1.9789963 -5.5433044 3.365265 -7.8766327 4.750656c-2.3333282 1.3853836 -4.0297546 2.416008 -6.1233673 3.561676c-2.0936127 1.145668 -4.1570435 2.1977234 -6.4383087 3.3123398c-2.2812805 1.1146088 -5.0411224 2.4794388 -7.249344 3.375328c-2.2082367 0.89588165 -4.2917786 1.4789963 -6.0 2.0c-1.7082367 0.5209961 -3.186798 0.86569977 -4.249344 1.1259842c-1.062561 0.2602768 -1.8342133 -0.06430817 -2.1259918 0.43569183c-0.29177856 0.5 0.22966003 1.6264191 0.3753357 2.5643082c0.1456604 0.93788147 0.34251404 2.1465454 0.49868774 3.0629883c0.15615845 0.9164505 0.28170776 1.8110275 0.43830872 2.4356995c0.15661621 0.62467194 -0.279953 1.2287827 0.50131226 1.3123322c0.7812805 0.0835495 2.2073517 -0.25896454 4.1863556 -0.8110199c1.9790039 -0.55205536 5.4794464 -1.7305374 7.687668 -2.5013123c2.2082214 -0.7707825 3.488617 -1.2589722 5.561676 -2.1233597c2.073059 -0.86439514 4.615921 -1.9483871 6.876648 -3.062996c2.2607117 -1.1146088 3.104538 -1.63517 6.6876526 -3.624672c3.5831146 -1.989502 8.884079 -4.760277 14.811035 -8.312332c5.926941 -3.5520554 15.10498 -9.520561 20.750656 -13.000004c5.6456604 -3.4794388 9.363068 -5.7200356 13.123352 -7.8766403c3.7602844 -2.1566048 6.354767 -3.4693794 9.438324 -5.062992c3.0835571 -1.5936127 6.167099 -3.1863518 9.062988 -4.4986877c2.8958893 -1.312336 5.749771 -2.385826 8.312332 -3.375328c2.562561 -0.98950195 4.40683 -1.728344 7.0629883 -2.5616798c2.656189 -0.83333206 6.4055176 -1.8027115 8.874023 -2.4383202c2.4685059 -0.6356087 3.8954468 -1.0109367 5.9370117 -1.3753281c2.041565 -0.36439133 4.041107 -0.62379456 6.3123474 -0.8110237c2.2712097 -0.18722534 4.5957947 -0.36439133 7.3149414 -0.31233597c2.7191772 0.052059174 6.094055 0.23928452 9.0 0.62467194c2.9059448 0.38539124 6.0713196 1.1045494 8.435699 1.687664c2.36438 0.5831146 3.6566162 1.061245 5.7506714 1.8110237c2.0940247 0.74978256 4.5844116 1.6981621 6.813629 2.687664c2.2292175 0.98950195 4.686798 2.2388458 6.561676 3.2493439c1.8749084 1.010498 2.9899597 1.7510948 4.687683 2.8136482c1.6977234 1.0625572 4.092743 2.6032372 5.4986877 3.5616798c1.4059448 0.9584427 2.0931702 1.5428696 2.9370117 2.1889763c0.84381104 0.6461067 0.9277954 2.1251106 2.1259766 1.687664z" fill-rule="nonzero"></path><path fill="#2b2d42" d="m216.1864 47.18624c-0.1666565 0.8438339 -1.8639526 0.94838333 -3.2493439 1.7506561c-1.385376 0.8022766 -3.9693756 2.6776047 -5.0629883 3.062992c-1.0936127 0.38539124 -0.60324097 0.10367584 -1.4986877 -0.7506561c-0.8954468 -0.85432816 -2.1552887 -2.6255455 -3.8740082 -4.375328c-1.7187347 -1.7497787 -4.3858337 -4.2694664 -6.438324 -6.1233597c-2.0524902 -1.8538933 -4.0433044 -3.5726166 -5.876648 -5.0c-1.8333282 -1.4273834 -3.4671783 -2.4601898 -5.123352 -3.5643044c-1.6561737 -1.1041107 -3.5533752 -2.289587 -4.8136444 -3.0603657c-1.2602844 -0.77077866 -1.4461975 -0.8871403 -2.7480316 -1.5643044c-1.3018494 -0.677166 -3.3963318 -1.7279091 -5.0630035 -2.4986877c-1.6666565 -0.77077866 -3.3429565 -1.4798775 -4.9369965 -2.1259842c-1.5940552 -0.6461067 -2.9916992 -1.2090988 -4.627304 -1.7506561c-1.6356049 -0.5415573 -3.2908936 -1.0196857 -5.1863556 -1.4986877c-1.8954468 -0.4790039 -4.332016 -1.020998 -6.1863403 -1.3753281c-1.8543396 -0.35433197 -3.2204742 -0.5424328 -4.939636 -0.7506561c-1.719162 -0.20822525 -3.6045532 -0.39457703 -5.3753357 -0.49868774c-1.7707672 -0.104112625 -3.4995575 -0.13648415 -5.249344 -0.12598419c-1.7497711 0.010498047 -3.4995575 0.053367615 -5.249344 0.18897629c-1.7497711 0.13560677 -3.499115 0.34339333 -5.2493362 0.62467194c-1.7502213 0.2812767 -3.4496918 0.6255455 -5.2519684 1.0629921c-1.8022766 0.4374447 -3.7077866 0.9785652 -5.5616837 1.5616798c-1.8538895 0.5831146 -3.759842 1.2392826 -5.561676 1.9370079c-1.8018417 0.6977253 -3.4991226 1.3639545 -5.249344 2.2493439c-1.7502213 0.8853893 -3.533249 1.9588795 -5.2519684 3.062992c-1.7187271 1.1041107 -3.300087 2.238844 -5.0603714 3.5616798c-1.7602768 1.3228321 -3.9698105 3.0104961 -5.5013123 4.375326c-1.5314941 1.36483 -2.5835495 2.5218735 -3.6876602 3.8136482c-1.1041107 1.2917786 -2.114174 3.13517 -2.9370117 3.937008c-0.8228302 0.8018379 -1.0730515 0.5927391 -2.0 0.8740158c-0.9269409 0.2812767 -2.4260712 0.5323715 -3.561676 0.8136482c-1.1356125 0.2812767 -2.1579208 0.60323715 -3.2519684 0.8740158c-1.0940552 0.27077866 -2.4584427 0.55249405 -3.3123398 0.7506561c-0.85388947 0.19816208 -1.8735733 0.8447075 -1.8110199 0.43832016c0.062553406 -0.40638733 0.95713043 -1.2725258 2.186348 -2.8766403c1.2292252 -1.6041107 3.814087 -5.0398064 5.18898 -6.7480316c1.3748932 -1.7082214 1.7375336 -2.1259842 3.0603638 -3.5013123c1.3228378 -1.3753281 3.324585 -3.3237076 4.8766403 -4.750654c1.5520554 -1.4269466 2.7690353 -2.4986877 4.4356995 -3.8110237c1.6666641 -1.312336 3.7725296 -2.86483 5.5643005 -4.062992c1.7917786 -1.198164 3.2073517 -2.0323715 5.1863556 -3.1259842c1.9790039 -1.0936146 4.7397156 -2.529747 6.68766 -3.4356966c1.9479446 -0.9059496 3.1666718 -1.333333 5.0 -2.0c1.8333359 -0.666667 3.989502 -1.4269466 6.0 -2.0c2.010498 -0.57305336 4.031502 -1.0319338 6.062996 -1.4383202c2.0314941 -0.40638638 4.0113754 -0.71872234 6.125984 -1.0c2.1146088 -0.28127766 4.686783 -0.5524936 6.561676 -0.68766403c1.8748932 -0.13517046 2.646103 -0.18591404 4.687668 -0.12335968c2.0415497 0.062554836 5.2803955 0.25940514 7.561676 0.49868774c2.2812805 0.23928261 4.032379 0.5826769 6.125992 0.9370079c2.0936127 0.35433102 4.2690277 0.6784773 6.435684 1.1889763c2.1666718 0.510499 3.9912567 1.0201225 6.564316 1.8740158c2.5730438 0.8538933 6.551178 2.3223972 8.874008 3.2493439c2.3228302 0.9269476 3.3337708 1.458005 5.0629883 2.312337c1.7292328 0.85433006 3.3748932 1.6990376 5.3123474 2.8136482c1.937439 1.1146107 4.228775 2.4676285 6.312332 3.8740158c2.0835571 1.4063854 4.4597473 3.2725277 6.18898 4.5643044c1.7292175 1.2917747 2.6552887 1.9155731 4.1863403 3.1863518c1.5310669 1.2707767 3.489502 3.031931 5.0 4.4383183c1.510498 1.4063873 2.854782 2.7607193 4.0630035 4.0c1.2082214 1.2392845 2.2803955 2.3110237 3.1863403 3.4356956c0.9059601 1.1246719 2.4160156 2.4685059 2.2493439 3.312336z" fill-rule="nonzero"></path><path fill="#2b2d42" d="m118.50047 49.688824c-0.32283783 0.38538742 0.44618988 1.8013992 0.7480316 2.937008c0.3018341 1.1356087 0.83377075 2.980751 1.0629883 3.8766403c0.22922516 0.89588547 -0.062553406 1.0717392 0.31233978 1.4986877c0.37488556 0.42694473 1.1141739 0.6880989 1.9370041 1.0629921c0.8228378 0.37488937 1.8538971 0.60323715 3.0 1.1863518c1.1461105 0.5831146 2.68898 1.4995613 3.876648 2.312336c1.1876526 0.81277084 2.2388458 1.6058617 3.2493439 2.5643044c1.010498 0.9584427 1.9387512 2.0717392 2.8136444 3.186348c0.8748932 1.1146164 1.6964111 2.2200394 2.4356995 3.5013123c0.7392731 1.2812805 1.4685059 2.8635178 2.0 4.1863556c0.53149414 1.3228302 0.80358887 2.1986008 1.1889648 3.7506561c0.38539124 1.5520554 0.8630829 3.8223953 1.1233673 5.561676c0.26028442 1.7392883 0.3442688 3.1343002 0.43832397 4.874016c0.09403992 1.7397232 0.15704346 3.824585 0.12597656 5.564308c-0.031051636 1.7397156 -0.20777893 3.2388458 -0.31233215 4.874016c-0.10455322 1.63517 -0.18984985 3.40551 -0.31495667 4.937004c-0.12512207 1.5315018 -0.3215332 3.2204742 -0.43569946 4.2519684c-0.11418152 1.0315018 -0.7493439 1.5205612 -0.24934387 1.9370117c0.5 0.4164505 2.0726166 0.46806335 3.2493439 0.561676c1.1767273 0.09361267 2.9256287 0.041557312 3.81102 0c0.88539124 -0.041557312 1.2095337 0.06299591 1.5013123 -0.24934387c0.29177856 -0.31233215 0.051620483 0.021438599 0.24934387 -1.6246719c0.19772339 -1.6461029 0.69729614 -5.866577 0.9370117 -8.251968c0.23971558 -2.3853836 0.42825317 -3.831581 0.50131226 -6.060364c0.07305908 -2.2287827 0.031051636 -4.958008 -0.06298828 -7.31234c-0.094055176 -2.3543243 -0.220047 -4.730095 -0.50131226 -6.8136444c-0.28128052 -2.0835495 -0.7489166 -3.9479446 -1.1863556 -5.687668c-0.43745422 -1.7397156 -0.73010254 -3.0629883 -1.438324 -4.750656c-0.70822144 -1.6876602 -1.7484741 -3.688095 -2.81102 -5.375328c-1.062561 -1.6872253 -2.356079 -3.4046326 -3.5643005 -4.748028c-1.2082367 -1.3433952 -2.3937073 -2.312336 -3.6850433 -3.312336c-1.291336 -1.0 -2.5629883 -1.8438339 -4.0629883 -2.687664c-1.5 -0.8438339 -3.4680786 -1.7292213 -4.9370117 -2.375328c-1.4689484 -0.6461067 -2.4908142 -1.0428696 -3.8766403 -1.5013123c-1.3858261 -0.4584427 -3.2510986 -0.9370079 -4.438324 -1.2493439c-1.1872253 -0.31233597 -2.3622055 -1.0100632 -2.6850357 -0.62467194z" fill-rule="nonzero"></path><path fill="#2b2d42" d="m101.249176 30.687775c-0.85432434 -0.083114624 -1.5936127 1.5008736 -2.3123322 2.1259842c-0.7187195 0.6251106 -1.3958893 1.0936127 -2.0 1.6246719c-0.6041107 0.53105927 -1.280838 1.093174 -1.6246719 1.5616798c-0.34383392 0.46850204 -0.59449005 0.84295654 -0.43832397 1.2493439c0.1561737 0.40638733 0.6566086 0.36614227 1.3753281 1.1889763c0.7187271 0.822834 2.0616837 2.508747 2.9370117 3.7480316c0.87532806 1.2392807 1.6167984 2.5 2.3149643 3.687664c0.69815826 1.187664 1.2388382 2.1671028 1.8740158 3.4383202c0.63517 1.2712173 1.3433914 2.605423 1.9370041 4.1889763c0.5936127 1.5835533 1.145668 3.5520554 1.6246719 5.312336c0.4790039 1.7602806 0.88451385 3.27034 1.2493439 5.249344c0.36483002 1.9790039 0.689415 4.645668 0.93963623 6.624672c0.25021362 1.9790039 0.3950119 3.7182846 0.561676 5.249344c0.16666412 1.5310593 0.29264832 2.437004 0.43832397 3.937004c0.14566803 1.5 0.3110199 3.4689484 0.43569183 5.062996c0.124671936 1.5940475 -0.052490234 3.6679764 0.31233215 4.5013123c0.36483002 0.8333359 1.0953674 0.49868774 1.876648 0.49868774c0.7812729 0 1.8525772 -0.30096436 2.81102 -0.49868774c0.9584427 -0.19772339 2.1373596 -0.55205536 2.9396362 -0.68766785c0.802269 -0.13560486 1.426506 -0.08442688 1.8740158 -0.12598419c0.44750214 -0.041557312 0.69641113 0.084869385 0.8110199 -0.12335968c0.114608765 -0.20822144 -0.02974701 0.051185608 -0.12335968 -1.1259842c-0.09361267 -1.1771622 -0.20909882 -3.5306168 -0.43832397 -5.937004c-0.22921753 -2.4063873 -0.63517 -6.073929 -0.9370041 -8.501312c-0.3018341 -2.4273834 -0.5301819 -4.010933 -0.8740158 -6.062996c-0.34383392 -2.0520554 -0.76158905 -4.291336 -1.1889801 -6.24934c-0.42738342 -1.958004 -0.812767 -3.6968498 -1.3753281 -5.4986877c-0.5625534 -1.8018379 -1.2917709 -3.5831146 -2.0 -5.312336c-0.70822144 -1.7292213 -1.416008 -3.4378815 -2.2493439 -5.062992c-0.83332825 -1.6251106 -1.8652649 -3.333332 -2.7506561 -4.687664c-0.8853836 -1.354332 -1.6972809 -2.3132095 -2.561676 -3.4383202c-0.86439514 -1.1251106 -1.7182846 -2.322834 -2.624672 -3.312336c-0.9063873 -0.98950195 -1.9593201 -2.5415573 -2.813652 -2.624672z" fill-rule="nonzero"></path><path fill="#2b2d42" d="m102.12609 58.688976c0 -0.57305145 -1.0734863 -2.470253 -1.4383163 -3.5013123c-0.36483002 -1.0310593 -0.49037933 -1.8727036 -0.7506561 -2.6850395c-0.2602768 -0.81233597 -0.6758499 -1.6990356 -0.8110275 -2.1889763c-0.13516998 -0.48993683 0.15660858 -0.61548615 0 -0.7506561c-0.15660095 -0.13516998 -0.0021820068 -0.07086563 -0.9396286 -0.060367584c-0.9374466 0.010498047 -2.9142609 0.019248962 -4.6850433 0.12335968c-1.7707748 0.10411072 -3.835083 0.2305336 -5.9396286 0.50131226c-2.1045532 0.27077866 -4.375328 0.65485764 -6.687668 1.1233597c-2.3123322 0.46850586 -4.5927353 0.9063873 -7.186348 1.687664c-2.5936127 0.7812767 -5.9273834 2.0310593 -8.375328 3.0c-2.4479446 0.96894073 -4.343834 1.8447075 -6.312336 2.8136482c-1.9685059 0.96894073 -3.706913 1.9273834 -5.4986877 3.0c-1.7917747 1.0726166 -3.5853004 2.2274704 -5.2519684 3.4356995c-1.6666679 1.2082214 -3.4356956 2.6885376 -4.7480316 3.8136444c-1.312336 1.1251068 -2.3447075 2.1972885 -3.1259842 2.9370117c-0.7812767 0.7397156 -1.4781265 1.0218658 -1.5616798 1.5013123c-0.083553314 0.47943878 0.39369965 0.76071167 1.0603676 1.3753281c0.66666794 0.61460876 1.9916878 1.5310516 2.9396324 2.3123322c0.94794464 0.7812805 2.0918617 1.8232727 2.7480316 2.375328c0.6561661 0.55205536 0.7515297 0.8748932 1.1889763 0.9370117c0.4374466 0.0621109 0.51924896 0.16491699 1.4356956 -0.56430817c0.9164467 -0.7292175 2.72966 -2.6443558 4.062992 -3.81102c1.3333321 -1.1666718 2.572178 -2.157486 3.937008 -3.18898c1.36483 -1.0314941 2.814087 -2.0625534 4.2519684 -3.0c1.4378815 -0.9374466 2.9273834 -1.8538895 4.375328 -2.624672c1.4479446 -0.77077484 2.8958893 -1.354332 4.312332 -2.0c1.4164505 -0.645668 2.6968536 -1.2909012 4.1863556 -1.8740158c1.489502 -0.5831146 3.1986008 -1.1557312 4.750656 -1.6246719c1.5520554 -0.46894073 3.0411224 -0.8346443 4.561676 -1.1889763c1.5205612 -0.35433197 3.3014069 -0.6977234 4.5616837 -0.9370079c1.2602768 -0.2392807 1.8954468 -0.3530197 3.0 -0.49868774c1.1045456 -0.14566803 2.356079 -0.3022728 3.6272964 -0.37532806c1.2712173 -0.07305145 2.854332 -0.041996002 4.0 -0.062992096c1.145668 -0.020996094 2.1552963 -0.062992096 2.8740158 -0.062992096c0.7187195 0 1.4383163 0.63604736 1.4383163 0.062992096z" fill-rule="nonzero"></path><path fill="#2b2d42" d="m84.33705 15.701006c-0.09361267 0.8600178 -2.3368301 2.1128616 -3.36483 3.0288715c-1.0279922 0.9160099 -2.0743637 1.8132114 -2.8031464 2.4671917c-0.72878265 0.65398026 -1.064743 1.3635159 -1.5695572 1.4566917c-0.50481415 0.09317589 -0.45012665 -0.31845856 -1.4593201 -0.8976364c-1.0091858 -0.57917786 -3.2690277 -1.9606304 -4.5957947 -2.5774288c-1.3267746 -0.6167965 -2.1307983 -0.69334984 -3.36483 -1.1233597c-1.2340317 -0.43000793 -2.5625534 -1.1391068 -4.0393715 -1.4566917c-1.4768143 -0.317585 -3.3451462 -0.33683395 -4.8215218 -0.4488201c-1.4763794 -0.11198616 -2.7095375 -0.27908897 -4.036747 -0.22309685c-1.3272095 0.05599308 -2.5056877 0.2602806 -3.9265099 0.5590553c-1.4208221 0.29877472 -3.1592293 0.74759483 -4.598423 1.2335968c-1.4391975 0.48600006 -2.8967628 1.140419 -4.036747 1.6824131c-1.1399803 0.541996 -1.5883636 0.7659683 -2.8031502 1.5695553c-1.2147827 0.80358696 -3.12117 2.0743656 -4.4855614 3.2519684c-1.3643951 1.1776028 -2.7099743 2.7108479 -3.7007885 3.8136482c-0.9908142 1.1027985 -1.4588814 1.7375317 -2.2440948 2.8031483c-0.7852135 1.0656185 -1.8132114 2.4129505 -2.4671917 3.5905514c-0.65398026 1.1776047 -0.9706917 2.166668 -1.4566936 3.4750671c-0.48600006 1.3083992 -1.0853004 2.9921265 -1.4593163 4.375328c-0.3740158 1.3832016 -0.57917786 2.3910751 -0.7847767 3.9238853c-0.20560074 1.5328064 -0.5236225 3.1233597 -0.4488201 5.2729645c0.074804306 2.1496048 0.5236225 5.6063004 0.8976383 7.624672c0.3740158 2.0183716 0.5800533 2.7283478 1.3464565 4.485565c0.7664051 1.7572136 2.093176 4.2445335 3.2519684 6.057743c1.1587925 1.8132095 2.373579 3.2891464 3.7007885 4.821518c1.3272095 1.5323715 2.898075 3.1014938 4.2624664 4.3727036c1.3643913 1.2712173 2.5406837 2.18898 3.9238853 3.254593c1.3832016 1.0656204 2.9921265 2.2235413 4.375328 3.1391144c1.3832016 0.9155731 2.5783005 1.5691147 3.9238853 2.3543243c1.345581 0.7852173 2.916008 1.7585297 4.149605 2.3569565c1.2335968 0.5984268 2.5603676 0.5419998 3.2519684 1.2335968c0.6916008 0.6916046 0.56124115 1.5144348 0.8976364 2.916008c0.33639526 1.4015808 0.896328 4.0918655 1.1207352 5.4934387c0.22441101 1.4015808 0.5993004 2.5608063 0.22572327 2.9160156c-0.37357712 0.35520172 -1.0463715 -0.18679047 -2.4671936 -0.7847824c-1.4208221 -0.5979843 -3.6465416 -1.6071701 -6.057743 -2.8031464c-2.4111977 -1.1959763 -5.9234467 -2.8958893 -8.409447 -4.3727036c-2.4860039 -1.4768143 -4.524933 -3.086174 -6.5065613 -4.4881897c-1.9816284 -1.402008 -3.7200356 -2.54068 -5.3832035 -3.9238815c-1.663166 -1.3832016 -3.2314072 -2.954506 -4.5958004 -4.375328c-1.3643913 -1.4208221 -2.580927 -2.8040237 -3.5905514 -4.1496124c-1.0096226 -1.345581 -1.5699902 -2.4475021 -2.4671917 -3.9238815c-0.89719963 -1.4763794 -2.0936127 -3.2147827 -2.91601 -4.9343796c-0.82239723 -1.7195969 -1.4203844 -3.569992 -2.0183725 -5.3832054c-0.5979872 -1.8132095 -1.1959753 -3.5520554 -1.5695534 -5.496063c-0.37357903 -1.9440079 -0.65310574 -3.775589 -0.671916 -6.16798c-0.018810272 -2.3923874 0.22265911 -5.812336 0.5590553 -8.186348c0.33639526 -2.3740158 0.7865267 -4.001751 1.4593172 -6.057743c0.6727905 -2.055996 1.6802273 -4.4094505 2.5774279 -6.2782173c0.89719963 -1.8687668 1.8337708 -3.438757 2.8057747 -4.9343834c0.972002 -1.4956245 1.7742767 -2.5813637 3.026247 -4.0393696c1.2519684 -1.4580059 3.0647411 -3.363079 4.4855633 -4.708662c1.4208221 -1.345581 2.6185474 -2.3552046 4.0393696 -3.364828c1.4208221 -1.0096245 3.0275593 -1.889327 4.4855633 -2.692914c1.4580078 -0.80358696 2.6924782 -1.4558182 4.2624702 -2.1286087c1.5699883 -0.6727905 3.5503044 -1.3845143 5.1574783 -1.9081364c1.6071739 -0.52362204 2.8031502 -0.95319366 4.485565 -1.2335958c1.682415 -0.28040266 3.7397194 -0.35520554 5.608925 -0.44881916c1.8692017 -0.09361315 3.7747154 -0.24365711 5.6062965 -0.11286068c1.8315849 0.13079596 3.3455849 0.44881868 5.3832016 0.89763784c2.0376205 0.44881868 4.804901 1.0848641 6.8425217 1.7952752c2.0376205 0.7104111 3.6824112 1.5888014 5.3832016 2.4671917c1.7007904 0.8783903 3.550743 1.980753 4.8215256 2.8031502c1.2707748 0.82239723 2.896759 1.2712154 2.8031464 2.1312332z" fill-rule="nonzero"></path><path fill="#2b2d42" d="m74.91513 68.52231c-1.7567749 0.16798401 -9.382759 3.494751 -11.551178 4.934387c-2.168415 1.4396286 -1.0481186 2.170601 -1.4593163 3.7034073c-0.41120148 1.532814 -0.83989716 3.5122528 -1.0078735 5.4934387c-0.1679802 1.9811935 -0.05599594 4.09449 0 6.3936996c0.055992126 2.2992172 0.018371582 4.8407745 0.33595657 7.401581c0.317585 2.5607986 0.82196045 5.477249 1.5695534 7.963249c0.7475929 2.4860077 1.7755928 4.7847824 2.9160118 6.952759c1.140419 2.1679764 2.4873123 4.185913 3.926506 6.0551147c1.4391937 1.8692093 3.1014862 3.7021027 4.708664 5.1601105c1.6071701 1.4580002 3.2147827 2.5787354 4.9343796 3.5879211c1.7196045 1.0091858 3.6447983 1.7944031 5.3832016 2.4672012c1.738411 0.6727905 3.383644 1.102356 5.047249 1.5695496c1.6636047 0.4671936 3.2147827 0.9155731 4.9343796 1.2335968c1.7195969 0.31802368 3.6819763 0.56211853 5.3832016 0.67453c1.7012253 0.11242676 3.889328 0.65441895 4.82415 0c0.9348221 -0.6544037 0.48600006 -2.374878 0.7847748 -3.9264984c0.29877472 -1.5516205 1.4007034 -4.4860077 1.0078735 -5.383209c-0.39282227 -0.8971939 -1.9816284 0.093177795 -3.36483 0c-1.3832016 -0.093170166 -3.2712097 -0.22265625 -4.9343796 -0.5590515c-1.6631699 -0.33639526 -3.343834 -0.86089325 -5.0446167 -1.4593201c-1.7007904 -0.5984268 -3.5524979 -1.3088379 -5.1601105 -2.1312332c-1.6076126 -0.8223953 -3.0835495 -1.7003479 -4.485565 -2.8031464c-1.402008 -1.1027985 -2.8048935 -2.4864426 -3.926506 -3.813652c-1.1216125 -1.3272095 -1.9995651 -2.8223953 -2.8031464 -4.149605c-0.80358887 -1.3272095 -1.3643951 -2.2624664 -2.0183792 -3.8136444c-0.65397644 -1.5511856 -1.475502 -3.7178497 -1.90551 -5.4934387c-0.43000793 -1.7755966 -0.48731232 -3.4776917 -0.67453766 -5.1601105c-0.18722534 -1.6824112 -0.41163635 -3.3643875 -0.44882202 -4.9343796c-0.03717804 -1.5699921 0.020126343 -2.653984 0.22572327 -4.485565c0.20559692 -1.8315811 0.7090988 -4.578743 1.0078735 -6.503937c0.29877472 -1.9251938 0.4855652 -3.5516205 0.7847748 -5.047241c0.29921722 -1.4956284 2.7672806 -4.09449 1.010498 -3.9265137z" fill-rule="nonzero"></path><path fill="#2b2d42" d="m135.47693 89.71842c0.56036377 1.1959763 0.9698181 6.280403 0.8950043 7.850395c-0.074798584 1.5699921 -0.27864075 1.1207352 -1.3438263 1.5695496c-1.0651855 0.44882202 -3.2900238 0.7493439 -5.047241 1.1233597c-1.7572174 0.3740158 -3.384079 0.7095413 -5.496063 1.1207352c-2.1119843 0.41120148 -4.428261 0.8980789 -7.1758575 1.3464584c-2.747589 0.44837952 -6.6181107 1.0262451 -9.309708 1.3438339c-2.6916046 0.31758118 -4.5971146 0.39326477 -6.839897 0.561676c-2.2427826 0.16841888 -4.2427826 0.33639526 -6.6167984 0.44882202c-2.3740158 0.11241913 -5.589676 0.24452972 -7.6272964 0.22572327c-2.0376205 -0.018814087 -3.5144348 -0.020561218 -4.598427 -0.3385849c-1.0839844 -0.31802368 -1.4383163 -0.5415573 -1.90551 -1.5695572c-0.4671936 -1.0279922 -0.6920395 -3.4956207 -0.8976364 -4.598419c-0.20559692 -1.1027985 -1.1207352 -1.7007904 -0.3359604 -2.0183716c0.7847824 -0.3175888 2.7458496 0.07523346 5.0446243 0.112854004c2.2987747 0.037620544 6.0936127 0.15048218 8.748032 0.11286163c2.654419 -0.037620544 4.7296524 -0.15135193 7.1784744 -0.33857727c2.448822 -0.18723297 5.2340317 -0.5043793 7.514435 -0.7847824c2.2804031 -0.28040314 3.6819763 -0.46806335 6.167984 -0.8976364c2.486 -0.42957306 6.131233 -1.1006088 8.748032 -1.6797867c2.6167908 -0.57917786 5.214348 -1.3092728 6.952751 -1.7952805c1.7384033 -0.48600006 2.4868774 -0.82151794 3.4776917 -1.1207352c0.9908142 -0.2992096 1.9068298 -1.8705139 2.4671936 -0.67453766z" fill-rule="nonzero"></path><path fill="#2b2d42" d="m111.92531 109.23431c0.95318604 -1.0284348 4.577423 -0.78609467 5.8293915 -1.010498c1.2519684 -0.22441101 1.1027985 -0.22397614 1.6824188 -0.3359604c0.57961273 -0.11198425 1.4772491 -0.5603714 1.7952728 -0.3359604c0.31802368 0.22441101 0.13166809 0.29921722 0.11286163 1.6824188c-0.018814087 1.3832016 -0.11329651 3.607605 -0.22572327 6.6167984c-0.11242676 3.0091858 -0.31802368 8.055115 -0.44882202 11.438316c-0.13079071 3.3832016 -0.093170166 5.6084824 -0.33595276 8.860893c-0.2427826 3.252411 -0.7095413 7.6443634 -1.1207352 10.653549c-0.41120148 3.0091858 -0.80446625 5.0087433 -1.3464584 7.4015656c-0.5419922 2.3928223 -1.1950989 4.618988 -1.90551 6.9553833c-0.7104111 2.3363953 -1.3473358 4.6517944 -2.3569565 7.0629883c-1.0096207 2.411209 -2.205597 4.786972 -3.7007904 7.4042053c-1.4951859 2.6172333 -3.475937 5.7572174 -5.27034 8.29921c-1.7944031 2.5419922 -3.814087 4.9903717 -5.496063 6.952759c-1.6819763 1.9623718 -2.465004 2.821518 -4.5958023 4.821518c-2.1307907 2.0 -6.1889725 5.4212646 -8.188972 7.178482c-2.0 1.7572174 -2.9514465 3.0284271 -3.8110275 3.3648224c-0.85957336 0.33639526 -0.78565216 -0.63604736 -1.3464508 -1.3464508c-0.5608063 -0.7104187 -1.3267746 -1.8880157 -2.0183716 -2.9160156c-0.6916046 -1.0279846 -2.2620316 -2.3359528 -2.1312408 -3.2519684c0.13079834 -0.91600037 1.4208298 -0.8608856 2.9160156 -2.2440948c1.4951859 -1.383194 3.7187195 -3.569107 6.0551147 -6.0551147c2.3363953 -2.4860077 5.75766 -6.038498 7.963257 -8.860886c2.205597 -2.822403 3.9059525 -5.9055176 5.27034 -8.073502c1.3643951 -2.1679688 1.8880157 -2.9903717 2.916008 -4.934372c1.0279999 -1.9440155 2.317154 -4.4304504 3.2519684 -6.72966c0.9348221 -2.2992249 1.6653595 -4.5236206 2.3569565 -7.065628c0.6916046 -2.5419922 1.2694702 -5.5695496 1.792656 -8.18634c0.52318573 -2.616806 1.0472412 -5.0472565 1.3464508 -7.514435c0.29921722 -2.4671936 0.31802368 -4.578308 0.44882202 -7.288727c0.13079834 -2.7104034 0.2239685 -6.0765457 0.3359604 -8.973747c0.11198425 -2.8972015 0.2983322 -6.1478577 0.33595276 -8.409447c0.037620544 -2.2615967 -1.0634232 -4.1316757 -0.11022949 -5.160103z" fill-rule="nonzero"></path><path fill="#2b2d42" d="m125.38304 121.456696c0.80402374 -1.2524109 3.253708 -0.98950195 5.160095 -1.4566956c1.9063873 -0.4671936 4.1850433 -0.93525696 6.2782288 -1.3464584c2.0931702 -0.41119385 4.24321 -0.84033203 6.280838 -1.1207352c2.037613 -0.28040314 3.94487 -0.41207123 5.94487 -0.561676c2.0 -0.1496048 3.9431458 -0.3359604 6.05513 -0.3359604c2.1119843 0 4.205597 0.07436371 6.616791 0.3359604c2.4111938 0.26158905 5.756775 0.7847748 7.850403 1.2335968c2.0936127 0.4488144 3.3280792 0.9545059 4.711273 1.4593124c1.3832092 0.50481415 2.2983398 0.89676666 3.5879364 1.5695572c1.2895813 0.6727905 2.9160004 1.7007828 4.149597 2.4671936c1.2335968 0.7664032 2.0183716 1.0284348 3.2519684 2.1312332c1.2335968 1.1027985 3.0091858 3.0463638 4.1496124 4.4855576c1.1404114 1.4391937 1.9076996 2.6916046 2.6929169 4.1496124c0.7852173 1.4580078 1.4951782 3.103241 2.0183716 4.598419c0.5231781 1.4951935 0.87794495 2.615921 1.1207275 4.372711c0.2427826 1.7567749 0.44795227 3.9995575 0.33596802 6.1679688c-0.11199951 2.1684265 -0.63430786 5.048126 -1.0078735 6.8425293c-0.37358093 1.7944031 -0.5608063 2.5218658 -1.2335968 3.923874c-0.6727905 1.4020233 -1.6255493 2.992569 -2.8031616 4.4881897c-1.177597 1.495636 -2.8044586 3.214798 -4.2624664 4.485565c-1.4579926 1.2707825 -2.7843323 2.2419128 -4.485565 3.1391144c-1.7012177 0.89720154 -3.777771 1.7392883 -5.7217712 2.2440948c-1.9440155 0.5048065 -4.0358734 0.7287903 -5.9422607 0.7847748c-1.9063873 0.055999756 -3.4400787 0 -5.496063 -0.44882202c-2.0559998 -0.44882202 -4.44751 -1.0476837 -6.839905 -2.2440948c-2.3923798 -1.1964111 -5.4768066 -3.2523956 -7.514435 -4.934372c-2.037613 -1.6819916 -3.3280792 -3.2510986 -4.711273 -5.157486c-1.3832092 -1.9063873 -2.634735 -4.131241 -3.5879364 -6.280838c-0.95318604 -2.1496124 -1.6452332 -4.597992 -2.1312256 -6.616806c-0.4860077 -2.0187988 -0.6351776 -3.4960632 -0.7847748 -5.496063c-0.14961243 -2.0 -0.18766785 -4.6907196 -0.11286926 -6.503937c0.074798584 -1.8132019 0.03805542 -3.5901031 0.561676 -4.3753204c0.5236206 -0.7852173 1.4960632 -0.26159668 2.5800629 -0.33596802c1.0839844 -0.07435608 2.9518738 -0.09185791 3.923874 -0.11022949c0.9720154 -0.018371582 1.6277466 -0.42956543 1.9081421 0c0.2803955 0.42956543 -0.16929626 1.2130432 -0.22572327 2.577423c-0.056427002 1.3643951 -0.20646667 3.9076996 -0.112854004 5.6089325c0.09361267 1.7012177 0.22572327 2.87883 0.67453 4.598419c0.44882202 1.7196045 1.3643951 4.167984 2.0183716 5.719162c0.6539917 1.551178 0.95233154 2.2047272 1.9055176 3.5879211c0.95318604 1.3832092 2.467636 3.4776917 3.8136444 4.7112885c1.3460236 1.2335968 2.6548615 1.9427032 4.2624664 2.6902924c1.6076202 0.7475891 3.5140076 1.4772491 5.383209 1.7952728c1.8692017 0.31802368 4.094055 0.39326477 5.832016 0.11286926c1.7379761 -0.28041077 3.2502136 -1.0660553 4.59581 -1.7952881c1.345581 -0.7292175 2.542862 -1.6828461 3.4776764 -2.5800476c0.9348297 -0.89720154 1.4584503 -1.6819763 2.1312408 -2.8031464c0.6727905 -1.12117 1.438324 -2.6902924 1.9055176 -3.9238892c0.46717834 -1.2335968 0.7480316 -2.1688538 0.8976288 -3.4776917c0.14961243 -1.3088379 0.055999756 -3.0292969 0 -4.3753204c-0.055984497 -1.3460236 0.11242676 -2.2804108 -0.33595276 -3.7007904c-0.44837952 -1.4203796 -1.5879364 -3.5507507 -2.3543396 -4.821518c-0.7664032 -1.2707825 -1.2344666 -1.8499603 -2.2440948 -2.8031464c-1.009613 -0.9532013 -2.3744507 -2.0376282 -3.8136444 -2.9160156c-1.4391937 -0.87838745 -3.1955414 -1.7563477 -4.821518 -2.3543396c-1.6259918 -0.5979767 -3.195984 -0.85957336 -4.934387 -1.2335892c-1.7384033 -0.3740158 -3.664032 -0.84207916 -5.496063 -1.010498c-1.832016 -0.16841888 -3.5336761 -0.018814087 -5.496063 0c-1.9623718 0.018806458 -4.0726166 -0.05555725 -6.2782135 0.11286163c-2.205597 0.16841888 -4.786957 0.5800476 -6.9553833 0.8976364c-2.1684113 0.3175888 -4.3171387 0.6902847 -6.0551147 1.0078812c-1.7379761 0.31758118 -3.0454865 0.5796051 -4.372696 0.8976288c-1.3272095 0.31802368 -2.7493439 0.78608704 -3.590561 1.010498c-0.8412018 0.22441101 -1.1202927 0.84077454 -1.4566879 0.33596802c-0.33639526 -0.5048218 -0.41207886 -1.7944031 -0.56168365 -3.3648376c-0.1496048 -1.570427 -1.1399841 -4.805336 -0.33595276 -6.0577393z" fill-rule="nonzero"></path><path fill="#2b2d42" d="m47.552383 186.27997c0.9343834 1.5328064 0.4488182 1.7576599 0.4488182 2.5800476c0 0.82240295 -0.20603561 1.6067352 -0.4488182 2.3543396c-0.2427826 0.7475891 -0.46587753 1.4396362 -1.0078735 2.1312256c-0.541996 0.6916046 -1.3652687 1.4763794 -2.2440948 2.0183716c-0.87882614 0.54200745 -2.0008736 0.86001587 -3.0288696 1.2335968c-1.0279961 0.37358093 -2.0551186 0.76509094 -3.1391106 1.0078735c-1.0839882 0.2427826 -2.3368301 0.16842651 -3.3648262 0.44882202c-1.0279999 0.28041077 -1.8499565 0.80358887 -2.803152 1.2335968c-0.95319176 0.43000793 -1.9811897 0.89764404 -2.91601 1.3464508c-0.9348202 0.44882202 -1.8328953 0.7856598 -2.692913 1.3464661c-0.8600178 0.5608063 -1.7007866 1.2895813 -2.4671917 2.0183716c-0.7664051 0.728775 -1.5144348 1.5319366 -2.1312332 2.3543243c-0.6167984 0.82240295 -1.0091877 1.3836517 -1.5695534 2.5800629c-0.5603676 1.1964111 -1.3626423 3.1215973 -1.7926521 4.598419c-0.43000793 1.4768219 -0.6937885 2.9168854 -0.7874012 4.2624664c-0.09361267 1.345581 0.038496017 2.4094543 0.22572136 3.81102c0.18722725 1.4015808 0.991251 4.3180237 0.8976383 4.5984344c-0.09361267 0.2803955 -1.0853024 -1.6264191 -1.4593182 -2.9160156c-0.3740158 -1.2895813 -0.72878265 -3.2515259 -0.7847767 -4.821518c-0.055992126 -1.5699921 0.18722725 -3.1780396 0.4488182 -4.5984344c0.26159286 -1.4203796 0.6535435 -2.765091 1.1207352 -3.923874c0.4671917 -1.1587982 0.9908142 -2.0380554 1.682415 -3.0288696c0.6916008 -0.9908142 1.5883636 -2.0936127 2.4671917 -2.9160156c0.87882805 -0.82240295 0.973753 -1.0275574 2.8057747 -2.0183716c1.8320217 -0.9908142 7.663168 -3.2720947 8.18635 -3.9265137c0.52318573 -0.65441895 -3.2900238 0.03718567 -5.047243 0c-1.7572174 -0.03718567 -3.701662 -0.29789734 -5.4960613 -0.22309875c-1.7944012 0.07481384 -3.663168 0.22354126 -5.270342 0.6719208c-1.6071739 0.44837952 -3.1951008 1.2707825 -4.3727036 2.0183716c-1.1776028 0.7475891 -2.0196848 1.6631622 -2.692913 2.4671936c-0.6732292 0.8040161 -1.1036749 1.3849487 -1.3464575 2.3569489c-0.24278164 0.9720001 -0.24103165 2.5778656 -0.11023617 3.4750671c0.13079643 0.89720154 0.31583595 1.6837311 0.8950138 1.9081421c0.5791769 0.22441101 1.9068241 -0.3184662 2.5800524 -0.561676c0.67322826 -0.2432251 0.87970257 -0.43045044 1.4593172 -0.89764404c0.5796156 -0.4671936 2.055993 -2.2607117 2.0183725 -1.9055176c-0.03761959 0.35520935 -1.6084862 2.541565 -2.244094 4.036743c-0.6356087 1.4951935 -1.177166 3.3455963 -1.5695543 4.934387c-0.39238834 1.5888062 -0.7287836 3.0844269 -0.7847767 4.5984344c-0.05599308 1.5139923 -0.05599308 2.877945 0.44881916 4.485565c0.5048113 1.607605 1.645669 3.8140717 2.5800524 5.160095c0.9343834 1.3460236 2.1478567 2.1872253 3.026246 2.9160156c0.87839127 0.728775 1.3468952 1.1203003 2.2440948 1.4566956c0.89719963 0.33639526 2.0923004 0.78608704 3.1391087 0.561676c1.0468063 -0.22441101 2.4501305 -1.1041107 3.1417313 -1.9081421c0.6916008 -0.8040161 0.821085 -1.607605 1.0078735 -2.9160004c0.18679047 -1.3084106 0.09405136 -3.4580078 0.11286163 -4.934387c0.018810272 -1.4763794 -0.018810272 -2.167099 0 -3.9238892c0.018810272 -1.7567749 0.09405136 -5.2707825 0.11286163 -6.616791c0.018808365 -1.3460236 -0.1496067 -1.0853119 0 -1.4593201c0.1496048 -0.37402344 0.6548538 -1.2707825 0.8976364 -0.7847748c0.2427826 0.48599243 0.27909088 2.3923798 0.5590553 3.7007904c0.27996445 1.3083954 0.7283459 3.0279846 1.1207352 4.149597c0.3923893 1.1216125 0.5603676 2.056427 1.2335949 2.5800476c0.6732292 0.52363586 1.7961521 0.8232727 2.8057766 0.5616913c1.0096207 -0.26159668 2.1867867 -1.1780396 3.2519684 -2.1312408c1.0651779 -0.95318604 2.410324 -2.3355103 3.1391068 -3.5879211c0.72878265 -1.2524109 1.2335968 -2.3000946 1.2335968 -3.9265137c0 -1.6264191 -0.7852173 -4.262024 -1.2335968 -5.832016c-0.44838333 -1.5699921 -1.1391068 -2.5411224 -1.4566917 -3.5879364c-0.3175888 -1.0467987 -0.5984268 -2.0013123 -0.44882202 -2.6929016c0.14960861 -0.6916046 0.6176758 -1.1391144 1.3464584 -1.4566956c0.72878265 -0.31758118 1.6994743 0.074798584 3.026245 -0.44882202c1.3267746 -0.5236206 3.8499565 -1.8145294 4.9343834 -2.6929169c1.0844269 -0.87838745 1.0673676 -1.5870514 1.5721779 -2.577423c0.50481415 -0.9903717 1.1951027 -2.467636 1.4566956 -3.3648224c0.26159286 -0.89720154 -1.0835533 -3.1211853 0.11286163 -2.0183868c1.1964111 1.1028137 4.916008 6.0 7.0656166 8.635178c2.1496048 2.6351776 3.682415 4.484253 5.83202 7.1758575c2.1496086 2.6915894 4.9536324 6.1509094 7.0656166 8.973755c2.1119843 2.8228302 4.204727 5.9444427 5.6063004 7.9632416c1.4015732 2.018814 1.6631622 2.3740234 2.8031464 4.1496124c1.1399841 1.775589 2.7095413 4.111557 4.036751 6.503937c1.3272095 2.392395 2.5433044 4.9532013 3.926506 7.8503876c1.3832016 2.8972015 3.1950989 6.5424347 4.3727036 9.532822c1.1776047 2.9903717 1.8705139 5.269455 2.6929169 8.409439c0.8223953 3.1399841 1.6994705 7.3836365 2.2414627 10.43045c0.5419998 3.046814 0.8420868 5.2147827 1.0105057 7.850403c0.16841125 2.6355896 0.074798584 4.9724426 0 7.963257c-0.07480621 2.9908142 -0.11242676 6.915985 -0.44882202 9.981628c-0.33639526 3.0656128 -0.9527588 5.4588623 -1.5695572 8.412048c-0.6167984 2.9532166 -1.4208221 6.727936 -2.1312332 9.307098c-0.7104111 2.579193 -1.0656128 3.3267822 -2.1312332 6.1679688c-1.0656128 2.841217 -3.0100555 7.851288 -4.2624664 10.879272c-1.2524033 3.0279846 -2.037178 4.840332 -3.2519684 7.288727c-1.2147827 2.4483643 -2.5227432 4.691162 -4.036743 7.4015503c-1.5139999 2.7104187 -3.6268616 6.4680786 -5.047249 8.860901c-1.4203796 2.3928223 -2.2042847 3.645691 -3.4750595 5.496063c-1.2707825 1.8504028 -3.6259842 4.279541 -4.1496124 5.6062927c-0.5236206 1.3267822 0.5778656 1.1955566 1.0078812 2.3543396c0.43000793 1.158783 1.2169724 3.4580078 1.5721741 4.598419c0.35520935 1.1404419 0.14785767 2.3001099 0.55905914 2.24411c0.41119385 -0.055999756 0.52493286 -0.63604736 1.9081345 -2.5800476c1.3832016 -1.9440308 4.279091 -5.9252014 6.391075 -9.084015c2.1119843 -3.158783 4.33683 -6.709961 6.280838 -9.868744c1.9440079 -3.1588135 3.4951935 -5.6071777 5.3832016 -9.083984c1.8880157 -3.4768372 4.3372726 -8.30011 5.9448853 -11.7769165c1.6076126 -3.4768066 2.5048141 -5.7196045 3.7007828 -9.083984c1.1959763 -3.3644104 2.447075 -7.4575806 3.4750671 -11.102356c1.0279999 -3.644806 2.09449 -7.850403 2.6929169 -10.766418c0.5984268 -2.9160156 0.5988617 -3.7764587 0.8976364 -6.729645c0.29877472 -2.9532166 0.8766403 -6.896332 0.8950119 -10.989502c0.018371582 -4.0932007 -0.28040314 -9.494751 -0.7847748 -13.56955c-0.50437164 -4.074829 -1.3442688 -7.2904663 -2.2414703 -10.879272c-0.89720154 -3.5888062 -2.0201263 -7.513565 -3.1417313 -10.653549c-1.1216125 -3.1399841 -2.4851303 -5.7939606 -3.5879288 -8.186356c-1.1027985 -2.3923798 -1.5520554 -3.4575653 -3.0288696 -6.1679688c-1.4768143 -2.7104187 -3.7200394 -6.72966 -5.8320236 -10.094498c-2.1119843 -3.3648224 -4.559494 -6.8608856 -6.8398895 -10.094482c-2.2804031 -3.2335968 -4.1509247 -5.811905 -6.8425217 -9.307083c-2.6916046 -3.4951935 -6.6343 -8.336838 -9.307091 -11.664047c-2.6727867 -3.3272095 -4.4864388 -5.5140076 -6.729656 -8.29921c-2.2432213 -2.7852173 -4.337269 -5.3280945 -6.72966 -8.412079c-2.3923874 -3.0839844 -5.251091 -6.8022766 -7.624672 -10.091858c-2.373577 -3.2895966 -4.803585 -6.710861 -6.6167984 -9.645676c-1.8132095 -2.9348145 -3.0100594 -5.365265 -4.2624664 -7.963257c-1.2524071 -2.5979767 -2.3359566 -5.1203003 -3.2519684 -7.6246643c-0.9160099 -2.5043793 -1.6644783 -4.971573 -2.244093 -7.401581c-0.57961655 -2.430008 -1.0468082 -4.524063 -1.2335968 -7.1784744c-0.18678856 -2.654419 -0.074365616 -6.131233 0.11286163 -8.748032c0.18722534 -2.6167984 0.46850395 -4.728348 1.010498 -6.952759c0.5419941 -2.224411 1.3630791 -4.132103 2.2414703 -6.3936996c0.87838936 -2.261589 2.7484684 -5.7926483 3.0288715 -7.17585c0.28040314 -1.3832016 -0.56124115 -0.4129486 -1.3464584 -1.1233597c-0.7852135 -0.7104111 -2.1688538 -2.1111145 -3.364828 -3.1391068c-1.1959763 -1.0279999 -2.970253 -2.9728851 -3.8110237 -3.0288773c-0.8407707 -0.055992126 -0.50437546 0.9916916 -1.2335968 2.6929169c-0.72922134 1.7012253 -2.3377075 5.477249 -3.1417313 7.514435c-0.80402374 2.0371857 -1.0656166 2.596672 -1.682415 4.708664c-0.6167984 2.1119843 -1.5511818 5.682846 -2.0183735 7.963249c-0.4671898 2.2804031 -0.6727905 3.3079681 -0.7847767 5.719162c-0.11198616 2.4112015 -0.12992096 5.869644 0.11286163 8.748032c0.2427826 2.878395 0.78302765 5.8307114 1.343832 8.522316c0.56080437 2.6915894 0.97419167 4.6924744 2.020998 7.627289c1.0468063 2.9348297 2.8954506 7.1216125 4.259842 9.981628c1.3643913 2.8600159 2.6181107 5.0288696 3.9265099 7.178482c1.3083973 2.1495972 2.3910751 3.4763794 3.9238834 5.719162c1.5328102 2.2427826 3.4969368 5.3263245 5.2729645 7.7375336c1.7760315 2.4111938 3.626423 4.505249 5.3832054 6.72966c1.7567787 2.2243958 4.223095 5.0839844 5.1574783 6.616791z" fill-rule="nonzero"></path><path fill="#2b2d42" d="m40.934383 476.1869c1.0096245 1.4391785 1.4965019 2.5791626 2.692913 3.7007751c1.196415 1.1216125 3.0463676 2.2624817 4.485565 3.0288696c1.4391937 0.76641846 2.654419 1.177185 4.149605 1.5695496c1.4951897 0.39239502 3.2143478 0.6911621 4.8215218 0.78479004c1.6071739 0.09362793 3.41951 0.019683838 4.8215218 -0.2230835c1.4020157 -0.24279785 2.5061264 -0.70999146 3.5905533 -1.2336121c1.0844269 -0.5236206 1.8132095 -1.0857239 2.916008 -1.9081421c1.1027985 -0.8223877 3.8692093 -3.3254395 3.7007904 -3.026245c-0.16841888 0.29922485 -3.421257 3.7563477 -4.7112885 4.821533c-1.2900238 1.0651855 -2.0380554 1.1395264 -3.0288696 1.5695496c-0.9908142 0.4300232 -1.9816284 0.8049011 -2.9160118 1.010498c-0.9343834 0.20559692 -1.7187233 0.18591309 -2.6902885 0.2230835c-0.97156525 0.037200928 -1.9991226 0.16799927 -3.1391068 0c-1.1399841 -0.16796875 -2.466755 -0.5782776 -3.7007866 -1.0078735c-1.2340355 -0.42956543 -2.4693794 -0.8779297 -3.703411 -1.5695496c-1.2340355 -0.69158936 -2.6167984 -1.664032 -3.7007904 -2.5800476c-1.0839882 -0.9160156 -2.205162 -2.8223877 -2.8031464 -2.9160156c-0.5979881 -0.09359741 -0.48600388 1.1767273 -0.7847786 2.3543396c-0.29877472 1.1776123 -0.85826874 3.1036682 -1.0078735 4.711273c-0.14960861 1.6076355 -0.1137352 3.4952087 0.11023712 4.934387c0.22397232 1.439209 0.56080246 2.579193 1.233593 3.7008057c0.6727905 1.1216125 1.6627312 2.0756836 2.8031502 3.0288696c1.140419 0.95318604 2.5065613 2.1299133 4.0393715 2.690277c1.5328064 0.56036377 3.4378815 0.59710693 5.1574783 0.67193604c1.7196007 0.074798584 3.6084862 0.18807983 5.1601067 -0.22311401c1.5516167 -0.41119385 3.0468063 -1.1972961 4.149605 -2.2440796c1.1028023 -1.046814 2.2992134 -3.4015808 2.4671898 -4.036743c0.16798401 -0.6351929 -0.86089325 0.24450684 -1.4593163 0.22570801c-0.598423 -0.018798828 -1.4396324 -0.11416626 -2.1312332 -0.33859253c-0.6916008 -0.22439575 -2.2427826 -0.8587036 -2.0183716 -1.0078735c0.22441101 -0.14916992 2.0564308 0.20648193 3.36483 0.112854004c1.3083992 -0.09359741 2.784336 -0.057739258 4.4855614 -0.67453c1.7012253 -0.6167908 4.114174 -1.8674622 5.7217865 -3.026245c1.6076126 -1.158783 3.045494 -2.5804749 3.9238815 -3.9265137c0.8783951 -1.3460083 1.1780472 -2.654419 1.3464584 -4.149597c0.16841888 -1.4951782 -0.05555725 -3.4943237 -0.33595276 -4.821533c-0.28040314 -1.3272095 -0.7480316 -2.2069092 -1.3464584 -3.1417236c-0.5984268 -0.93481445 -1.4028854 -1.9063721 -2.2440948 -2.4671936c-0.8412094 -0.560791 -1.8499603 -0.82284546 -2.803154 -0.89764404c-0.95319366 -0.074798584 -1.9816208 0.018829346 -2.916008 0.44882202c-0.9343796 0.4300232 -1.849083 1.2900391 -2.6902847 2.1312256c-0.8412094 0.84121704 -1.5717468 1.9440308 -2.3569603 2.9160156c-0.7852135 0.9720154 -1.6443558 2.1124268 -2.3543282 2.9160156c-0.7099762 0.80358887 -1.3258972 1.4754944 -1.9055138 1.9055176c-0.57961273 0.42999268 -1.3477669 0.8425293 -1.5721779 0.67453c-0.2244072 -0.16796875 -0.11111069 -1.1775818 0.22572327 -1.6824036c0.33683014 -0.5048218 1.216095 -0.9352722 1.7952728 -1.3464661c0.57917786 -0.41119385 1.3062134 -0.57873535 1.6797905 -1.1207275c0.37358093 -0.5419922 0.7484703 -1.3088379 0.56167984 -2.1312256c-0.18678665 -0.8224182 -1.0844269 -2.092743 -1.682415 -2.8031616c-0.5979881 -0.7104187 -1.0831146 -1.0852966 -1.90551 -1.4593201c-0.82239914 -0.37402344 -1.645668 -0.76638794 -3.0288734 -0.7847595c-1.3832016 -0.018371582 -3.6815376 0.16970825 -5.27034 0.67453c-1.5888023 0.5048218 -3.0288696 1.401123 -4.2624664 2.3543396c-1.2335968 0.95318604 -2.0923004 3.7760315 -3.1391068 3.3648071c-1.0468063 -0.41119385 -2.2445335 -3.7012024 -3.141735 -5.8320007c-0.8971977 -2.1307983 -1.6434822 -4.335968 -2.2414665 -6.952759c-0.5979881 -2.6167908 -1.1220474 -6.0188293 -1.3464584 -8.748047c-0.22441101 -2.7292175 -0.0748024 -4.9916687 0 -7.627289c0.0748024 -2.63562 0.24322128 -5.7191467 0.4488182 -8.18634c0.20560074 -2.4671936 0.33639526 -4.1496277 0.7847786 -6.6168213c0.44837952 -2.467163 1.2887115 -5.868744 1.90551 -8.18634c0.6167984 -2.3175964 1.1408577 -3.9059448 1.7952766 -5.7191467c0.65441895 -1.8132324 1.2900276 -3.3657227 2.1312332 -5.1601257c0.8412094 -1.7944031 1.906826 -3.6998901 2.9160118 -5.6062927c1.0091858 -1.9063721 2.1671028 -4.0559998 3.1391068 -5.8320312c0.97200394 -1.776001 1.328083 -2.6933289 2.692913 -4.824127c1.36483 -2.1307983 4.7672806 -6.129059 5.496063 -7.9606323c0.72878265 -1.8315735 -0.6745415 -2.000885 -1.1233597 -3.0288696c-0.4488182 -1.0280151 -1.0651779 -2.185913 -1.5695534 -3.1390991c-0.50437546 -0.95321655 -0.9335098 -2.5612488 -1.4566917 -2.5800781c-0.52318573 -0.018798828 -0.5608063 0.4300232 -1.682415 2.4671936c-1.1216125 2.037201 -3.6452332 7.0083313 -5.047245 9.75592c-1.4020119 2.747589 -2.224411 4.3368225 -3.36483 6.729645c-1.140419 2.3928223 -2.356079 4.954529 -3.4776917 7.6273193c-1.1216087 2.6727905 -2.2799644 5.7366333 -3.2519684 8.409424c-0.97200394 2.6727905 -1.9820633 5.3092957 -2.5800514 7.6273193c-0.5979881 2.3180237 -0.69028854 3.458435 -1.0078735 6.2808228c-0.317585 2.8224182 -0.6920395 7.6819763 -0.8976383 10.653534c-0.20559883 2.9715881 -0.33595848 5.101074 -0.33595848 7.175873c0 2.0747986 0.11154938 3.1793518 0.33595848 5.272949c0.2244091 2.093628 0.56168175 5.064331 1.0105 7.288727c0.4488182 2.2243958 0.8976364 4.0577393 1.682415 6.0577393c0.7847748 2.0 1.9610672 4.129486 3.026245 5.9422607c1.0651779 1.8127747 2.3552055 3.4951782 3.36483 4.934387z" fill-rule="nonzero"></path><path fill="#2b2d42" d="m61.90442 211.6277c1.5887985 0.5048218 5.589676 4.335968 6.3936996 5.719162c0.80402374 1.3832092 -0.35476685 1.0848694 -1.5695572 2.5800629c-1.2147827 1.4951782 -3.9431305 4.1854706 -5.719158 6.3910675c-1.7760277 2.205597 -3.534996 4.7865295 -4.937008 6.8425293c-1.4020119 2.0559845 -2.2978973 3.4190674 -3.4750633 5.4934235c-1.177166 2.0743713 -2.5971146 4.915146 -3.5879288 6.952759c-0.9908142 2.0376282 -1.6653519 3.515747 -2.3569527 5.2729645c-0.6916046 1.7572174 -1.194664 3.3079681 -1.7926521 5.270355c-0.5979881 1.9623718 -1.2344704 4.1675415 -1.7952766 6.503937c-0.56080246 2.3363953 -1.3263321 5.5704346 -1.5695534 7.514435c-0.24322128 1.9440002 -0.03937149 2.392395 0.11023712 4.149597c0.1496048 1.7572327 0.3197708 4.225281 0.7873993 6.3937073c0.4676323 2.1684265 1.3083992 4.7852173 2.0183754 6.616791c0.7099724 1.8315735 1.251091 2.989502 2.2414703 4.372711c0.9903755 1.3832092 2.3363953 2.8796997 3.7007866 3.9265137c1.3643913 1.0467834 2.9339447 1.8311462 4.485565 2.354309c1.5516167 0.52319336 2.7305336 0.6539917 4.8241463 0.78479004c2.0936127 0.13079834 5.6815414 0.1867981 7.7375336 0c2.0559921 -0.1867981 3.5328064 -0.6159363 4.598427 -1.1207275c1.0656128 -0.5048218 1.1596603 -1.1417542 1.7952728 -1.9081421c0.63560486 -0.76641846 1.4391937 -1.6622925 2.0183716 -2.690277c0.57917786 -1.0280151 1.0643082 -2.3001099 1.4566956 -3.4776917c0.3923874 -1.1776123 0.6920395 -2.4103394 0.8976364 -3.5879517c0.20559692 -1.1775818 0.35476685 -2.3936768 0.3359604 -3.4776917c-0.018814087 -1.0839844 -0.1500473 -1.9794312 -0.44882202 -3.026245c-0.29877472 -1.0467834 -0.745842 -2.1889648 -1.3438339 -3.2545776c-0.5979843 -1.0656128 -1.4400711 -2.279541 -2.2440948 -3.1390991c-0.80402374 -0.8595886 -1.794838 -1.4763794 -2.5800476 -2.0183716c-0.7852173 -0.5420227 -1.36483 -0.8595886 -2.1312332 -1.2336121c-0.7664108 -0.37402344 -2.878395 -1.4404907 -2.4671936 -1.010498c0.41119385 0.4300232 3.6631622 2.3941345 4.9343796 3.5905457c1.2712173 1.1964111 1.9076996 2.092743 2.6929169 3.5879211c0.78520966 1.4952087 1.6819763 3.7008057 2.0183716 5.383209c0.33639526 1.6824341 0.20559692 3.2344666 0 4.7113037c-0.20559692 1.4768066 -0.5979843 2.6920166 -1.2335968 4.149597c-0.63560486 1.4575806 -1.7204742 3.4370117 -2.5800476 4.5957947c-0.859581 1.158783 -0.8954544 1.7773438 -2.5774307 2.356964c-1.6819763 0.57962036 -6.448822 1.1955261 -7.514435 1.1207275c-1.0656166 -0.074798584 1.1583557 -1.0087585 1.1207352 -1.5695496c-0.037620544 -0.56082153 -0.5988655 -1.0476685 -1.3464584 -1.7952881c-0.7475929 -0.7475891 -2.2607193 -1.84906 -3.1391068 -2.690277c-0.87839127 -0.84121704 -1.5704308 -1.4781189 -2.1312332 -2.356964c-0.5608063 -0.8788147 -1.1399841 -1.9256287 -1.2335968 -2.9160156c-0.09361267 -0.99035645 0.44750595 -2.1106567 0.67191696 -3.026245c0.2244072 -0.91555786 0.30052185 -1.7944031 0.67453766 -2.4671936c0.3740158 -0.6727905 0.82196045 -1.1767273 1.5695572 -1.5695496c0.7475929 -0.39282227 1.944004 -0.8805542 2.916008 -0.78738403c0.97200394 0.093170166 1.906826 0.8416443 2.9160118 1.3464355c1.0091858 0.5048218 2.2047272 1.1588135 3.1391068 1.6824341c0.9343872 0.5236206 2.2799683 1.5901184 2.4671936 1.4593201c0.18722534 -0.13079834 -0.48425293 -1.440094 -1.3438339 -2.24411c-0.859581 -0.8040161 -2.5424347 -1.7576599 -3.8136444 -2.5800476c-1.2712173 -0.8223877 -2.7292252 -1.4571228 -3.813652 -2.3543396c-1.0844269 -0.8971863 -2.1132965 -1.9820557 -2.692913 -3.0288696c-0.57961655 -1.0467834 -0.80358887 -2.2427673 -0.7847786 -3.2519531c0.018810272 -1.0091858 0.33683395 -1.9059448 0.8976402 -2.8031616c0.56080246 -0.8971863 1.2147827 -1.9072571 2.4671898 -2.5800476c1.2524071 -0.6727905 3.4208221 -1.2138977 5.047241 -1.4566956c1.6264267 -0.24276733 3.1972885 -0.41119385 4.7112885 0c1.5139999 0.41119385 3.1019287 1.3460083 4.3727036 2.4671936c1.2707825 1.1211853 2.373581 2.6898499 3.2519684 4.259857c0.8783951 1.5699768 1.4763794 3.6644592 2.0183716 5.160095c0.5419998 1.495636 0.99037933 2.8044434 1.2335968 3.8136292c0.24321747 1.0092163 -0.05467987 2.2602844 0.22572327 2.2414856c0.28040314 -0.018798828 1.1579208 -1.5131226 1.4566956 -2.3543396c0.29877472 -0.8411865 0.37313843 -1.8145142 0.33595276 -2.6929016c-0.03717804 -0.87838745 -0.970253 -2.4094543 -0.5590515 -2.577423c0.41119385 -0.16799927 2.1850357 0.99035645 3.026245 1.5695496c0.8412094 0.5791626 1.5161896 0.98950195 2.020996 1.9055176c0.50481415 0.9160156 0.83989716 2.4501343 1.0078735 3.5905457c0.16798401 1.1404114 0.16798401 2.0183716 0 3.2519531c-0.16797638 1.2336121 -0.4846878 2.6916199 -1.0078735 4.1496277c-0.52318573 1.4580078 -1.1964111 3.1404114 -2.1312332 4.598419c-0.9348221 1.4580078 -2.0384903 2.8788147 -3.4776917 4.149597c-1.4391937 1.2707825 -3.624672 2.5966797 -5.1574783 3.4750671c-1.5328064 0.87838745 -2.4689407 1.2532959 -4.0393677 1.7952881c-1.570427 0.5419922 -3.5888062 1.1950989 -5.3832016 1.4566956c-1.7944031 0.26156616 -3.6636047 0.18765259 -5.3832054 0.112854004c-1.7195969 -0.074798584 -3.5699883 -0.3560791 -4.9343834 -0.561676c-1.3643913 -0.20559692 -2.205597 -0.3171692 -3.2519684 -0.67193604c-1.0463676 -0.35476685 -1.9046364 -0.82107544 -3.026245 -1.4566956c-1.1216087 -0.6355896 -2.4881897 -1.3285217 -3.703411 -2.3569336c-1.2152252 -1.0284424 -2.5975533 -2.4864502 -3.5879288 -3.8136597c-0.9903755 -1.3272095 -1.7187233 -2.7852173 -2.3543282 -4.149597c-0.6356087 -1.3644104 -1.2537193 -4.373596 -1.4593201 -4.036743c-0.20559692 0.3368225 -0.110672 2.880127 0.22572327 6.0577393c0.33639526 3.1776123 1.2134743 9.381897 1.7926521 13.007874c0.57917404 3.6259766 0.9720001 5.7384033 1.6824112 8.748016c0.7104111 3.0096436 1.6080513 6.09494 2.5800552 9.309723c0.97200394 3.2147827 2.242344 6.969818 3.2519684 9.979004c1.0096245 3.0091858 1.7961502 5.234894 2.8057747 8.076111c1.0096207 2.841217 1.345581 4.185913 3.2519684 8.97113c1.9063873 4.7852173 6.0555534 14.712158 8.186348 19.740173c2.1307983 5.0279846 3.2340393 7.2130127 4.598427 10.427795c1.3643951 3.2147827 2.092743 5.197296 3.5879288 8.860901c1.4951859 3.6636047 3.831581 9.083557 5.3832016 13.120728c1.5516205 4.037201 2.786087 7.7191772 3.926506 11.102386c1.140419 3.3831787 2.0564346 6.206024 2.9160156 9.196838c0.859581 2.9908142 1.4938736 5.607605 2.2414703 8.748016c0.7475891 3.140442 1.8328934 7.3092957 2.2440948 10.094513c0.41119385 2.7852173 0.12992096 4.1872253 0.22309113 6.616791c0.093177795 2.4295654 0.29833984 5.437439 0.3359604 7.9606323c0.037620544 2.5231628 0.076553345 4.356079 -0.11023712 7.178467c-0.18679047 2.8223877 -0.54286957 6.48468 -1.010498 9.75592c-0.46762848 3.2712097 -1.2344742 7.0113525 -1.7952728 9.871368c-0.5608063 2.8600159 -0.859581 4.485138 -1.5695572 7.288727c-0.7099762 2.8035889 -1.6810989 6.4299927 -2.6902847 9.532806c-1.0091858 3.1028137 -2.1124268 5.9440002 -3.36483 9.083984c-1.2524109 3.1400146 -2.7475967 6.7091064 -4.1496124 9.75592c-1.402008 3.046814 -2.5428696 5.272522 -4.2624664 8.524902c-1.7195969 3.2524414 -4.410324 7.942688 -6.0551147 10.989502c-1.6447945 3.046814 -2.6920395 5.104126 -3.8136482 7.291382c-1.1216087 2.1871948 -1.9440079 3.7947998 -2.9160118 5.83197c-0.97200394 2.0372314 -2.0188103 4.260315 -2.916008 6.3911133c-0.89720154 2.1307983 -1.9440079 5.0476685 -2.4671936 6.3936768c-0.52318573 1.3460083 -0.6347313 1.0472412 -0.67191696 1.6824341c-0.037181854 0.6351929 0.13123322 1.1382446 0.4488182 2.128601c0.3175888 0.99035645 0.74671936 2.5612183 1.4566956 3.8136597c0.7099724 1.2523804 1.8311462 2.6727905 2.8031502 3.7008057c0.97200394 1.0279541 1.7576523 1.5323486 3.0288696 2.467163c1.2712173 0.93481445 3.3460197 2.0761108 4.598423 3.1417236c1.2524109 1.0656128 1.6076126 2.0371704 2.9160156 3.2519531c1.3083954 1.2148438 3.6636047 2.840332 4.9343796 4.036804c1.2707825 1.1964111 1.9238892 2.0200806 2.6902924 3.1417236c0.7664032 1.121582 1.4593124 2.3919067 1.9081345 3.5878906c0.44882202 1.1959839 0.691597 2.1675415 0.7847748 3.5879517c0.093177795 1.4203491 -0.057304382 3.588379 -0.22572327 4.934387c-0.16841125 1.3460083 -0.46718597 2.0389404 -0.7847748 3.1417236c-0.31758118 1.1027832 -0.5599289 2.2042847 -1.1207352 3.4750366c-0.5608063 1.270813 -2.2817154 3.925232 -2.2440948 4.149658c0.037620544 0.22436523 1.740593 -1.7191772 2.469818 -2.8031616c0.7292175 -1.0839844 1.2887115 -2.4295654 1.90551 -3.7008057c0.6167984 -1.2712402 1.4216995 -2.4313354 1.7952805 -3.9265137c0.3735733 -1.4951782 0.61460876 -3.3814697 0.44618988 -5.0446167c-0.16841888 -1.663147 -0.82151794 -3.6259766 -1.4566956 -4.934387c-0.63517 -1.3084106 -1.4383163 -1.9063721 -2.3543243 -2.9160156c-0.9160156 -1.0095825 -2.1885452 -2.2069092 -3.1417313 -3.1417236c-0.95319366 -0.93481445 -1.7550354 -1.831604 -2.5774307 -2.467163c-0.8223953 -0.6356201 -1.2725296 -0.4492798 -2.3569565 -1.3464966c-1.0844269 -0.89715576 -4.0936127 -3.569519 -4.149605 -4.036743c-0.05599594 -0.4671631 2.4304428 0.87841797 3.8136444 1.2335815c1.3832016 0.3552246 3.1211777 0.72924805 4.485565 0.89764404c1.3643951 0.16845703 2.5419998 0.15008545 3.7007904 0.112854004c1.1587906 -0.03717041 2.1115494 -0.3731079 3.2519684 -0.3359375c1.140419 0.03717041 2.4877472 0.14788818 3.5905533 0.55908203c1.1027985 0.41119385 2.1290436 1.1229248 3.026245 1.9081421c0.89720154 0.7852173 1.721344 1.8499146 2.3569565 2.8031006c0.63560486 0.9532471 1.0643005 1.8320312 1.4566879 2.9160156c0.3923874 1.0839844 0.8228378 2.3171387 0.8976364 3.5879517c0.07480621 1.270752 -0.1496048 2.8219604 -0.4488144 4.036743c-0.29921722 1.2147827 -1.1036758 3.1395264 -1.3464584 3.2519531c-0.2427826 0.11242676 0.076553345 -1.7738037 -0.11023712 -2.5773926c-0.18679047 -0.80358887 -0.54286957 -1.5708618 -1.010498 -2.2441406c-0.46762848 -0.6732178 -1.7016602 -2.206482 -1.7952728 -1.795227c-0.09361267 0.41119385 0.97156525 2.8792114 1.2335968 4.262451c0.26202393 1.3831787 0.3945694 2.541565 0.33857727 4.036743c-0.055992126 1.4951782 -0.16972351 3.3267822 -0.67453766 4.934387c-0.50481415 1.607605 -1.4759445 3.3092651 -2.354332 4.7113037c-0.87838745 1.4019775 -1.9068222 2.6727905 -2.916008 3.7007446c-1.0091858 1.0280151 -2.0363083 1.831604 -3.1391068 2.4672241c-1.1027985 0.6355591 -2.2252884 1.1032104 -3.4776917 1.3464355c-1.2524033 0.2432251 -3.008751 0.24365234 -4.036743 0.112854004c-1.0279999 -0.13079834 -1.2900314 -0.28082275 -2.1312332 -0.89764404c-0.8412094 -0.61676025 -2.3180237 -1.569519 -2.9160156 -2.8031616c-0.5979843 -1.2335815 -0.8027115 -2.8971558 -0.67191315 -4.5983887c0.13079834 -1.7012329 0.98950195 -4.038513 1.4566879 -5.6089478c0.4671936 -1.5704346 1.0848694 -2.6548462 1.3464584 -3.8136597c0.26159668 -1.1587524 0.559494 -2.597107 0.22309875 -3.1390991c-0.33639526 -0.5419922 -1.7370987 -0.505249 -2.2414703 -0.112854004c-0.50437164 0.39239502 -0.67235565 1.6071777 -0.7847748 2.4672241c-0.11242676 0.85998535 0.09186554 2.0012817 0.11023712 2.692871c0.018371582 0.6916504 0.48600006 1.381897 0 1.4567261c-0.4860077 0.07476807 -1.906826 -0.3727417 -2.9160118 -1.0078735c-1.0091858 -0.6351929 -2.5039368 -1.6255493 -3.1391068 -2.8031616c-0.6351738 -1.1776123 -0.783905 -2.7668457 -0.67191696 -4.262451c0.11198425 -1.4956665 0.85826874 -3.234497 1.3438301 -4.7113037c0.4855652 -1.4768066 1.1395454 -2.8972168 1.5695534 -4.149597c0.43001175 -1.2524414 0.842083 -2.3744507 1.0105019 -3.3648682c0.16841507 -0.99035645 0.57961273 -1.8486328 0 -2.5773926c-0.57961655 -0.72875977 -2.4496956 -1.1968384 -3.4776917 -1.7952881c-1.0279961 -0.5983887 -1.7747154 -0.9729004 -2.6902885 -1.7952881c-0.9155731 -0.8223877 -2.0555573 -2.1671143 -2.8031502 -3.1390991c-0.7475929 -0.97198486 -1.1964111 -1.8328857 -1.682415 -2.6929321c-0.48600006 -0.85998535 -0.7475929 -3.3272095 -1.2335968 -2.467163c-0.48600006 0.8600464 -1.1964111 4.8980713 -1.682415 7.6273193c-0.48600006 2.729187 -0.9343796 5.364807 -1.233593 8.747986c-0.2992134 3.3832397 -0.54286957 8.05603 -0.56167984 11.5512085c-0.018810272 3.4951782 0.16841507 6.2611694 0.4488182 9.419922c0.28040314 3.1588135 0.6727905 6.2244263 1.2335968 9.532837c0.56080246 3.3084106 1.4020119 7.195984 2.1312332 10.317566c0.72922134 3.121643 1.1972885 5.0288696 2.2440948 8.412109c1.0468063 3.3831787 2.7659645 8.503906 4.036743 11.887146c1.2707787 3.3831787 2.2983398 5.4400635 3.5879288 8.412048c1.2895889 2.9719849 2.8600159 6.541565 4.149605 9.419922c1.2895889 2.878418 2.354332 5.046814 3.5879288 7.850403c1.2335968 2.8035889 2.6732254 5.961975 3.8136444 8.97113c1.140419 3.0092163 2.3372726 6.392395 3.0288696 9.083984c0.6916046 2.6915894 0.91513824 4.934387 1.1207352 7.065613c0.20560455 2.1312256 0.35564423 3.777771 0.11286163 5.7218018c-0.2427826 1.9440308 -0.80314636 4.2226562 -1.5695496 5.9422607c-0.7664032 1.7196045 -1.9260712 3.1600952 -3.0288696 4.375305c-1.1028061 1.215271 -2.2235413 2.1872559 -3.5879288 2.9160156c-1.3643951 0.7288208 -2.934822 1.2698975 -4.598427 1.4567261c-1.6636047 0.18676758 -3.8692017 0.07519531 -5.3832016 -0.33599854c-1.5139999 -0.41119385 -2.5791779 -1.0844116 -3.7007866 -2.1312256c-1.1216125 -1.046814 -2.2812767 -2.392395 -3.0288734 -4.149597c-0.7475929 -1.7572021 -1.2322807 -4.618103 -1.4566917 -6.3936768c-0.22441101 -1.7756348 -0.001750946 -2.9702759 0.11023712 -4.2598877c0.11198425 -1.2895508 0.37445068 -4.0756226 0.56167984 -3.4776611c0.18722534 0.5979614 0.2064743 5.140442 0.56167984 7.065613c0.35520554 1.9251709 0.7659645 3.102356 1.5695534 4.4855957c0.80358505 1.3831787 1.887577 2.9164429 3.2519684 3.8135986c1.3643913 0.8972168 3.2147865 1.5136108 4.9343834 1.5695801c1.7195969 0.05596924 3.888012 -0.46722412 5.383198 -1.2335815c1.4951935 -0.76641846 2.6719208 -2.2248535 3.5879288 -3.3648682c0.9160156 -1.1399536 1.440506 -2.2974243 1.9081345 -3.4750366c0.4676361 -1.1776123 0.7668457 -2.0201416 0.89764404 -3.5905762c0.13079071 -1.5704346 0.20516205 -3.8320312 -0.11286163 -5.8320312c-0.31802368 -2.0 -0.95407104 -3.7943726 -1.7952805 -6.1679688c-0.8412018 -2.3735352 -2.1491623 -5.5874634 -3.2519684 -8.073486c-1.1027985 -2.485962 -1.8136444 -3.6277466 -3.36483 -6.8425293c-1.551178 -3.2147827 -4.035866 -8.240601 -5.942253 -12.446167c-1.9063873 -4.2056274 -3.9816284 -9.049011 -5.496063 -12.787415c-1.5144348 -3.7384033 -2.4129486 -6.1106567 -3.5905533 -9.643066c-1.1776009 -3.5323486 -2.596672 -8.354736 -3.4750633 -11.551147c-0.87839127 -3.1964111 -1.1784782 -4.6364746 -1.7952766 -7.6273193c-0.6167984 -2.9907837 -1.4011383 -6.5979614 -1.90551 -10.317566c-0.50437546 -3.7196045 -0.9339485 -8.4487915 -1.1207352 -12.0c-0.18679047 -3.5512085 -0.14916992 -6.0734863 0 -9.307068c0.1491661 -3.2336426 0.39063644 -6.6364746 0.8950119 -10.094482c0.50437546 -3.4580078 1.2524071 -7.1207886 2.1312332 -10.653564c0.87882614 -3.532837 1.9829407 -7.2161255 3.1417313 -10.543335c1.1587944 -3.3272095 2.4094505 -6.2423096 3.8110237 -9.419922c1.401577 -3.1776123 2.8412094 -5.9820557 4.598427 -9.645691c1.7572174 -3.6635742 4.1688538 -8.76593 5.9448814 -12.3359375c1.7760277 -3.5700073 3.1601028 -5.925171 4.7112885 -9.083984c1.551178 -3.1588135 3.2314072 -6.691162 4.5957947 -9.868774c1.3643951 -3.1776123 2.4877548 -6.2808533 3.5905533 -9.196838c1.1027985 -2.9160156 2.0170593 -4.990814 3.026245 -8.299225c1.0091858 -3.3084106 2.2808456 -7.9252014 3.0288773 -11.551178c0.7480316 -3.6259766 1.0293045 -6.6719055 1.4593124 -10.204742c0.43000793 -3.5328064 0.97156525 -7.4592896 1.1207352 -10.992096c0.14916992 -3.532837 0.18547821 -6.5599365 -0.22572327 -10.204742c-0.41119385 -3.644806 -1.3630753 -7.7948303 -2.2414627 -11.664032c-0.8783951 -3.8692017 -1.9260788 -7.9064026 -3.0288773 -11.551178c-1.1027985 -3.644806 -2.3919525 -7.009186 -3.5879211 -10.317596c-1.1959763 -3.3084106 -1.8307114 -5.21521 -3.5879288 -9.532806c-1.7572174 -4.3175964 -4.936569 -11.587494 -6.9553833 -16.372711c-2.0188065 -4.7852173 -3.1391068 -7.478546 -5.1574783 -12.338562c-2.0183716 -4.8600464 -4.8779526 -11.587952 -6.952755 -16.821533c-2.0748024 -5.233612 -3.7764664 -9.944458 -5.496063 -14.580048c-1.7195969 -4.63562 -3.3075256 -8.57962 -4.8215218 -13.233612c-1.5139999 -4.653961 -3.047245 -9.681091 -4.2624702 -14.690277c-1.2152214 -5.009186 -2.2436562 -10.560822 -3.0288696 -15.364838c-0.7852135 -4.804016 -1.3832016 -9.048126 -1.682415 -13.45932c-0.2992115 -4.411194 -0.30008698 -8.765076 -0.11286163 -13.007874c0.18722916 -4.2427673 0.5629921 -8.411194 1.2362213 -12.448822c0.6732292 -4.0375977 1.663166 -7.963684 2.8031502 -11.776886c1.1399803 -3.8132172 2.63517 -7.850403 4.036743 -11.102371c1.401577 -3.2519684 2.6902924 -5.5682373 4.3727036 -8.409439c1.682415 -2.841217 3.9457588 -6.18898 5.7217865 -8.637802c1.7760277 -2.448822 3.514 -4.3543243 4.9343834 -6.0551147c1.4203835 -1.7007904 2.466755 -3.0096283 3.587925 -4.1496124c1.1211739 -1.1399841 1.5503082 -3.1950989 3.1391106 -2.6902924z" fill-rule="nonzero"></path><path fill="#2b2d42" d="m375.9265 62.46719c-1.0656128 0.14960861 -2.0017395 2.6727943 -2.8057861 3.7007866c-0.8040161 1.0279999 -1.9811707 1.7944031 -2.0183716 2.4671936c-0.03717041 0.6727905 0.1876831 0.35433197 1.7952881 1.5695572c1.607605 1.2152176 4.654419 3.740158 7.8503723 5.721779c3.195984 1.9816284 8.073059 4.6167984 11.32547 6.167984c3.252411 1.551178 5.422577 2.2047195 8.188995 3.1391068c2.766388 0.9343796 5.4750366 1.7944031 8.409424 2.4671936c2.9343872 0.6727905 5.645233 1.0835495 9.196869 1.5695496c3.5516052 0.48600006 8.262451 1.1968536 12.112854 1.3464584c3.8504028 0.1496048 7.325897 -0.1496048 10.989502 -0.44882202c3.6636047 -0.2992096 7.5529175 -0.87926483 10.992126 -1.3464508c3.4391785 -0.4671936 5.848633 -0.74671936 9.643036 -1.4566956c3.794403 -0.7099762 8.954956 -1.8123398 13.123352 -2.803154c4.1684265 -0.9908066 7.9059753 -2.0013123 11.887146 -3.1417313c3.9812012 -1.140419 8.205597 -2.5048065 12.0 -3.7007828c3.794403 -1.1959763 7.196411 -2.3162766 10.766418 -3.4750671c3.5699768 -1.1587906 7.0087585 -2.2624664 10.653534 -3.4776917c3.6447754 -1.2152252 7.8692017 -2.673668 11.21521 -3.8136444c3.3460083 -1.1399841 5.496521 -1.8674545 8.860901 -3.026249c3.36438 -1.1587944 8.147888 -2.898075 11.325439 -3.9265099c3.1776123 -1.0284348 4.6745605 -1.3840752 7.7401733 -2.2440948c3.0656128 -0.86001587 7.7751465 -2.1312332 10.653564 -2.9160118c2.878357 -0.7847748 4.1307983 -1.1758499 6.6167603 -1.7926483c2.486023 -0.6167984 5.588806 -1.3285217 8.299255 -1.9081383c2.7103882 -0.57961273 5.1036377 -1.12117 7.963257 -1.5695534c2.859558 -0.44837952 6.3534546 -0.84033203 9.194214 -1.1207352c2.8407593 -0.28040314 5.251953 -0.4308815 7.850403 -0.56167984c2.5983887 -0.13079453 5.590515 -0.20472336 7.7401123 -0.22309494c2.1496582 -0.018375397 3.5875244 -0.24234772 5.1575317 0.11285782c1.5699463 0.35520554 3.0848389 1.083992 4.262451 2.0183754c1.1776123 0.9343834 2.0179443 2.0555534 2.8031616 3.587925c0.7852173 1.5323715 1.8892822 4.6342964 1.9081421 5.6063004c0.018798828 0.97200394 -0.7484741 -0.18547821 -1.7952881 0.22571945c-1.046814 0.41120148 -3.2891846 1.3818932 -4.4855957 2.2414703c-1.1964111 0.859581 -1.9265137 2.0 -2.692871 2.9160118c-0.76641846 0.916008 -1.4943237 1.7760315 -1.9055176 2.5800552c-0.41119385 0.80402374 -0.4309082 1.4216919 -0.56170654 2.2440948c-0.13079834 0.8223953 -0.31671143 1.8866959 -0.2230835 2.6902847c0.09362793 0.80358887 0.16796875 1.589241 0.78479004 2.1312332c0.61676025 0.5419922 1.9067993 1.0087509 2.9160156 1.1207352c1.0091553 0.11198425 2.1486816 -0.09404755 3.1390991 -0.4488144c0.99035645 -0.35477448 2.0179443 -1.1378021 2.8031616 -1.6797943c0.7852173 -0.5419922 1.7025146 -1.8149567 1.9081421 -1.5721741c0.2055664 0.24277496 -0.22576904 2.0568619 -0.67456055 3.0288696c-0.44885254 0.9720001 -1.4763794 1.9247589 -2.0183716 2.8031464c-0.5419922 0.8783951 -0.93481445 1.6447983 -1.2335815 2.4671936c-0.29882812 0.8223953 -0.6715088 1.4951859 -0.55908203 2.4671936c0.11242676 0.9720001 0.560791 2.5048065 1.2335815 3.36483c0.6727905 0.86001587 1.4763794 1.2156601 2.8031616 1.7952728c1.3267822 0.57961273 3.9798584 1.4208221 5.1574707 1.6824112c1.1776123 0.26159668 0.97332764 -0.056861877 1.9081421 -0.11286163c0.93481445 -0.055992126 2.560791 0.20691681 3.7008057 -0.22309113c1.1399536 -0.43000793 2.3355103 -1.4221344 3.1390991 -2.3569565c0.80358887 -0.9348221 1.3272095 -2.0371857 1.6824341 -3.2519684c0.35516357 -1.2147903 0.39282227 -2.9527588 0.4487915 -4.036743c0.05596924 -1.083992 0.073913574 -1.3643951 -0.112854004 -2.4671936c-0.18676758 -1.1027985 -0.7279053 -3.0468063 -1.0078735 -4.149605c-0.27996826 -1.1028061 -0.91467285 -2.653984 -0.67193604 -2.4671936c0.24279785 0.18679047 1.3062134 2.6535416 2.128601 3.5879288c0.82244873 0.9343796 1.6842041 1.7379684 2.8057861 2.0183716c1.1216431 0.28040314 3.0266724 0.056427002 3.9238892 -0.3359604c0.8972168 -0.3923874 1.1977539 -1.083992 1.4593506 -2.0183716c0.26159668 -0.9343872 0.3157959 -2.634735 0.11022949 -3.5879288c-0.20562744 -0.95319366 -0.67108154 -1.2524033 -1.3438721 -2.1312332c-0.6727905 -0.87882996 -1.8140869 -2.2817154 -2.692871 -3.1417313c-0.8788452 -0.86001587 -1.6268921 -1.3267708 -2.5800781 -2.0183716c-0.95318604 -0.6916008 -1.9802856 -1.5332489 -3.1390991 -2.1312332c-1.1588135 -0.5979881 -2.2248535 -1.213913 -3.8136597 -1.4566956c-1.5888062 -0.2427826 -4.4855347 0.33639526 -5.7191772 0c-1.2335815 -0.33639526 -1.5887451 -2.317585 -1.682373 -2.0183716c-0.09362793 0.2992134 0.7283325 2.5988617 1.1207275 3.8136482c0.39239502 1.2147865 0.80358887 2.2414703 1.2335815 3.4750633c0.42999268 1.2335968 0.991272 2.748909 1.3464355 3.9265137c0.3552246 1.177597 0.59802246 2.0363083 0.78479004 3.1391068c0.18682861 1.1027985 0.35479736 2.4496918 0.33599854 3.4776917c-0.018859863 1.0279922 -0.26208496 1.7559052 -0.44885254 2.6902847c-0.18676758 0.9343872 -0.29833984 1.8315811 -0.67193604 2.916008c-0.37353516 1.0844269 -1.4199219 3.5717468 -1.569519 3.5905533c-0.14959717 0.018814087 0.44750977 -2.300087 0.67193604 -3.4776917c0.22436523 -1.177597 0.56207275 -2.2419052 0.6744995 -3.5879211c0.11242676 -1.3460236 0.0748291 -3.2169724 0 -4.4881897c-0.07476807 -1.2712173 -0.22436523 -2.0551224 -0.4487915 -3.1391068c-0.22442627 -1.083992 -0.6356201 -2.2992172 -0.89764404 -3.36483c-0.26202393 -1.0656204 -0.45013428 -2.0196877 -0.67456055 -3.0288734c-0.22442627 -1.0091858 -0.31713867 -1.7742767 -0.671875 -3.026245c-0.35479736 -1.2519684 -1.064331 -3.3079643 -1.4567261 -4.485565c-0.39239502 -1.1776047 -0.39282227 -1.7200356 -0.89764404 -2.5800514c-0.5048218 -0.8600197 -1.3460083 -1.8324585 -2.1312256 -2.5800552c-0.7852173 -0.7475929 -2.7296753 -1.5503044 -2.5800781 -1.90551c0.1496582 -0.35520554 1.7021484 -0.30052567 3.4777222 -0.22572327c1.7755737 0.0748024 4.2226562 0.45013046 7.1758423 0.6745415c2.953186 0.22441101 7.384094 0.39151382 10.543335 0.67191696c3.1592407 0.28040314 5.720459 0.61811066 8.412048 1.010498c2.6915894 0.3923874 4.952759 0.83945847 7.737549 1.3438301c2.78479 0.50437546 6.279541 1.1216125 8.97113 1.682415c2.6915894 0.5608063 4.673645 1.083992 7.178467 1.682415c2.5048218 0.5984268 5.121582 1.1789169 7.850403 1.9081383c2.7287598 0.72922134 5.400696 1.458004 8.522278 2.4671898c3.121643 1.0091858 7.4033203 2.6159248 10.207397 3.5879288c2.804016 0.97200394 4.3551636 1.4405098 6.6167603 2.244091c2.2615967 0.80358887 4.391968 1.6618576 6.952759 2.5774307c2.560791 0.9155731 5.888916 2.0936127 8.412109 2.916008c2.5231323 0.8223953 4.559021 1.4199524 6.7269897 2.0183716c2.1679688 0.5984268 4.411682 1.1793518 6.280884 1.5721817c1.8692017 0.39282227 3.1587524 0.65398407 4.934326 0.7847748c1.7756348 0.13079834 3.9060059 0.037620544 5.7191772 0c1.8132324 -0.037620544 3.5153198 0.07349396 5.160095 -0.22572327c1.6448364 -0.2992096 3.2506714 -0.8779526 4.708679 -1.5695496c1.4580078 -0.6916046 2.9365845 -1.7576599 4.0393677 -2.5800552c1.1027832 -0.8223953 1.7738647 -1.2891464 2.5774536 -2.354332c0.80358887 -1.0651779 1.7392578 -2.4291306 2.2440796 -4.036743c0.5048218 -1.6076126 0.99035645 -3.8517036 0.78479004 -5.608925c-0.20562744 -1.7572174 -1.0280151 -3.551178 -2.0183716 -4.9343796c-0.9904175 -1.3832054 -2.5219116 -2.4864426 -3.9238892 -3.36483c-1.4020386 -0.87839127 -2.9553833 -1.4195099 -4.48822 -1.9055138c-1.5327759 -0.48600006 -3.0078735 -0.78608704 -4.708618 -1.010498c-1.7008057 -0.22441101 -3.8136597 -0.29877472 -5.4960938 -0.33595657c-1.6824341 -0.03718567 -3.290039 0.019245148 -4.5984497 0.11285782c-1.3083496 0.093616486 -3.5511475 0.35520554 -3.2519531 0.44882202c0.29925537 0.09361267 3.1032715 -0.07392883 5.047241 0.11285782c1.9440308 0.18679047 4.654419 0.5783043 6.6168213 1.0078773c1.9624023 0.42956924 3.5686646 0.8779526 5.1574707 1.5695534c1.5888062 0.6916008 3.197754 1.6452293 4.375305 2.5800514c1.1776123 0.9348221 2.0735474 2.0196838 2.6903076 3.0288696c0.6168213 1.0091896 0.8609009 2.0918655 1.010498 3.026249c0.14959717 0.9343834 0.055541992 1.6452293 -0.112854004 2.5800514c-0.168396 0.9348221 -0.13122559 1.9632568 -0.89764404 3.0288734c-0.76641846 1.0656128 -2.3363647 2.4116364 -3.7008057 3.36483c-1.3643799 0.95319366 -2.709961 1.7935257 -4.4855347 2.354332c-1.7755737 0.56079865 -4.0 0.89850616 -6.1679688 1.010498c-2.1679688 0.11198425 -4.3911133 0.07261658 -6.839905 -0.3385849c-2.4488525 -0.41120148 -5.4414062 -1.4186325 -7.8530273 -2.1286087c-2.411621 -0.7099762 -3.9628296 -1.1776047 -6.6168213 -2.1312332c-2.6539307 -0.95362854 -5.1202393 -1.9829407 -9.307068 -3.5905533c-4.1867676 -1.6076088 -12.000427 -4.6347313 -15.81366 -6.0551186c-3.8131714 -1.4203835 -4.5424194 -1.6076088 -7.065613 -2.4671898c-2.5231934 -0.859581 -5.06427 -1.793087 -8.073486 -2.6902885c-3.0091553 -0.89720154 -5.9628296 -1.6832886 -9.981628 -2.692913c-4.018799 -1.0096245 -10.0563965 -2.5236244 -14.131226 -3.36483c-4.074768 -0.8412094 -5.4763794 -1.0284348 -10.317566 -1.682415c-4.8412476 -0.65398026 -13.215698 -1.7370949 -18.729675 -2.2414703c-5.513977 -0.50437546 -10.485107 -0.6163597 -14.354309 -0.7847748c-3.8692017 -0.16841888 -5.888916 -0.206913 -8.860901 -0.22572327c-2.9719849 -0.018810272 -5.3639526 -0.11154938 -8.97113 0.11286163c-3.6071777 0.2244072 -7.9803467 0.5979881 -12.671936 1.233593c-4.6915894 0.6356087 -9.888855 1.4212608 -15.477661 2.5800552c-5.588806 1.1587906 -12.727905 2.9523163 -18.055115 4.3727036c-5.3272095 1.4203835 -10.618103 3.1587906 -13.908142 4.149605c-3.290039 0.9908142 -2.5796509 0.7484703 -5.8320312 1.7952766c-3.2524414 1.0468063 -8.561218 2.8219604 -13.682434 4.485565c-5.121155 1.6636047 -11.923462 3.8512688 -17.044617 5.4960594c-5.121155 1.6447983 -9.383179 3.0831146 -13.682404 4.3727036c-4.299225 1.2895889 -9.907257 2.7668457 -12.112854 3.36483c-2.205597 0.59799194 0.4680481 -0.20690918 -1.1207275 0.22309875c-1.5888062 0.43000793 -5.384094 1.6093597 -8.412079 2.3569565c-3.0280151 0.7475891 -6.3167114 1.4370041 -9.75592 2.1286087c-3.4391785 0.691597 -7.458435 1.4973755 -10.879272 2.020996c-3.420807 0.5236206 -6.5800476 0.82196045 -9.64566 1.1207352c-3.0656128 0.29877472 -4.9912415 0.6531067 -8.748016 0.67191315c-3.7568054 0.018814087 -9.475067 -0.18547058 -13.792664 -0.5590515c-4.3175964 -0.37358093 -8.505249 -0.97200775 -12.112854 -1.6824188c-3.607605 -0.7104111 -6.598419 -1.6080475 -9.532806 -2.5800476c-2.9343872 -0.97200775 -5.531494 -2.0743637 -8.073486 -3.2519684c-2.5419922 -1.1776047 -4.8792725 -2.4676285 -7.1784973 -3.813652c-2.2991943 -1.3460159 -4.9160156 -3.0848618 -6.616791 -4.2624664c-1.7007751 -1.1776047 -2.5223083 -2.952755 -3.5879211 -2.8031502z" fill-rule="nonzero"></path><path fill="#2b2d42" d="m288.979 85.14173c1.3315735 -0.36963654 2.681549 -1.1093597 3.6614075 -1.6640396c0.9798889 -0.5546799 1.4225769 -1.0166245 2.217865 -1.6640396c0.79525757 -0.6474228 1.9247437 -1.4991302 2.5538025 -2.2204742c0.6290283 -0.7213516 1.2576599 -1.3862686 1.220459 -2.1076126c-0.03717041 -0.7213516 -0.6482849 -1.6098022 -1.443573 -2.2204742c-0.79525757 -0.610672 -2.4221191 -0.9256363 -3.328064 -1.4435654c-0.9059448 -0.5179367 -1.4785767 -1.017067 -2.107605 -1.6640472c-0.62905884 -0.6469803 -1.2966003 -1.25634 -1.666687 -2.217842c-0.37008667 -0.9615097 -0.49822998 -2.311905 -0.5538025 -3.5511856c-0.055541992 -1.2392807 -0.038482666 -2.793087 0.2204895 -3.8845139c0.25894165 -1.0914268 0.70428467 -2.1089249 1.333313 -2.6640434c0.62905884 -0.55511475 1.5533752 -0.8700752 2.4409485 -0.6666641c0.88757324 0.2034111 1.8858337 1.2397194 2.8845215 1.8871384c0.99868774 0.647419 2.201233 1.4610672 3.107605 1.9973755c0.9064026 0.5363083 2.6819763 1.7567787 2.330719 1.2204704c-0.35128784 -0.5363045 -3.0140076 -3.0695534 -4.438324 -4.43832c-1.4243164 -1.368763 -2.8499756 -2.6277313 -4.107605 -3.7742767c-1.2576599 -1.1465454 -2.5507507 -1.9212608 -3.438324 -3.104988c-0.88757324 -1.1837273 -1.9055176 -2.8320198 -1.887146 -3.9973755c0.018371582 -1.1653519 0.7397156 -2.2734032 1.9973755 -2.994751c1.2576599 -0.721344 3.9024353 -1.0743637 5.5485535 -1.3333321c1.6461182 -0.25896835 2.922577 -0.31320953 4.3280945 -0.22047043c1.4055176 0.09273529 2.8656921 0.33289337 4.1049805 0.77690125c1.2392883 0.44400787 2.4982605 0.9440079 3.330719 1.8871384c0.8324585 0.9431343 1.164917 2.5328102 1.664032 3.771656c0.499115 1.238842 1.0717468 2.5699883 1.330719 3.661415c0.25894165 1.0914268 0.1675415 1.9251976 0.2230835 2.8871384c0.055541992 0.9619446 -0.14874268 2.126423 0.11022949 2.8845177c0.25897217 0.758091 1.1290588 2.0524902 1.443573 1.6640396c0.31451416 -0.38845062 0.42520142 -2.9221344 0.443573 -3.994751c0.018371582 -1.0726166 -0.11154175 -1.6272964 -0.3333435 -2.4409447c-0.22177124 -0.8136482 -1.5892334 -2.4781265 -0.9973755 -2.4409447c0.5918884 0.037181854 3.3280945 1.8132095 4.5485535 2.6640434c1.2204895 0.8508301 2.10849 1.3315811 2.774292 2.4409447c0.665802 1.1093597 0.96151733 2.994751 1.220459 4.2152214c0.25897217 1.2204742 0.49957275 1.8311462 0.3333435 3.1076126c-0.16622925 1.2764664 -0.7944031 3.3118973 -1.330719 4.551178c-0.5362854 1.2392883 -1.0918579 1.8858261 -1.8871155 2.8845139c-0.7952881 0.99868774 -1.7191772 2.1089249 -2.8845215 3.1076126c-1.1653442 0.99868774 -2.664917 1.9781265 -4.107605 2.8845139c-1.4427185 0.9063873 -3.21698 1.7952805 -4.5485535 2.5538101c-1.331604 0.75852966 -1.9059753 1.40551 -3.4409485 1.9973755c-1.5350037 0.59186554 -5.454529 1.7760239 -5.769043 1.5538025c-0.31451416 -0.22222137 2.5503235 -1.851265 3.881897 -2.8871384c1.3315735 -1.0358658 2.9422607 -2.2187195 4.107605 -3.3280792c1.1653442 -1.1093674 2.0708618 -2.1815414 2.8845215 -3.3280869c0.81365967 -1.1465454 1.442688 -2.3118973 1.9973755 -3.5511856c0.5546875 -1.2392807 1.2012329 -2.2195969 1.330719 -3.8845139c0.12945557 -1.664917 -0.165802 -4.4033203 -0.553833 -6.1049843c-0.3880005 -1.7016602 -1.164032 -2.940071 -1.7742615 -4.104988c-0.6102295 -1.1649132 -0.9807434 -1.9225693 -1.887146 -2.8845139c-0.9063721 -0.96194077 -2.164032 -1.9068222 -3.551178 -2.8871384c-1.387146 -0.98031616 -4.716095 -3.161415 -4.7716675 -2.994751c-0.055541992 0.16666794 3.2917786 2.866581 4.438324 3.994751c1.1465454 1.1281738 1.7568054 1.7200356 2.4409485 2.7742805c0.6841736 1.0542412 1.1644897 2.2935257 1.6640625 3.551178c0.49954224 1.2576561 1.0743408 2.6259842 1.333313 3.994751c0.25897217 1.3687668 0.3687744 2.7012253 0.2204895 4.2178497c-0.14831543 1.5166245 -0.5183716 3.4208221 -1.11026 4.8818893c-0.5918579 1.4610672 -1.5717163 2.6452332 -2.440918 3.8845139c-0.86920166 1.2392807 -1.5166321 2.3118973 -2.774292 3.551178c-1.2576599 1.2392883 -3.7729797 2.9413834 -4.7716675 3.8845139c-0.99868774 0.9431381 -2.700348 1.9037628 -1.220459 1.7742844c1.4798889 -0.12948608 7.1404114 -1.719162 10.099731 -2.5511856c2.95932 -0.832016 5.0485535 -1.516182 7.656189 -2.4409409c2.607605 -0.9247589 5.1780396 -1.8867035 7.989502 -3.1076126c2.811432 -1.2209091 6.049408 -2.8118973 8.879242 -4.2178497c2.829834 -1.4059448 5.2143555 -2.6640396 8.099731 -4.2178497c2.8854065 -1.5538025 6.1421814 -3.2926483 9.212616 -5.1049843c3.0704346 -1.812336 6.250641 -3.9383202 9.209961 -5.7690277c2.95932 -1.8307076 5.845581 -3.624672 8.545929 -5.215225c2.7003784 -1.5905495 4.97464 -2.7926483 7.656189 -4.328083c2.6815186 -1.5354309 5.103668 -3.0345573 8.433075 -4.884514c3.3293762 -1.8499565 8.232269 -4.58749 11.543304 -6.2152214c3.3110046 -1.6277351 5.566925 -2.4230118 8.322815 -3.5511818c2.7559204 -1.1281738 5.179352 -2.219162 8.212616 -3.2178497c3.0332336 -0.99868774 6.9724426 -2.071741 9.986877 -2.7742767c3.0144348 -0.70253754 5.103668 -1.0896778 8.099731 -1.4409447c2.9960632 -0.35126877 6.880127 -0.64785767 9.876648 -0.66666794c2.9964905 -0.018810272 4.994751 0.16535568 8.102356 0.5538063c3.107605 0.38845062 7.750641 1.2034111 10.543304 1.7769032c2.7926636 0.57349014 4.0673523 0.90594864 6.2125854 1.6640415c2.1452332 0.7580929 4.365265 1.8486443 6.6588135 2.8845139c2.293518 1.0358696 5.104553 2.2764664 7.102356 3.3307076c1.9978027 1.054245 3.4046326 2.069992 4.8845215 2.994751c1.4798584 0.9247627 2.2410278 1.4225731 3.994751 2.5538063c1.7537231 1.1312332 4.9370117 3.0131226 6.5275574 4.233597c1.5905457 1.2204742 2.0472412 1.8600159 3.015747 3.0892372c0.96850586 1.2292213 2.1111145 2.824585 2.7952576 4.286091c0.6841736 1.4615059 0.99868774 3.0888023 1.3097229 4.4829407c0.31103516 1.3941383 0.42694092 4.1408577 0.556427 3.8818893c0.12948608 -0.25896835 0.3022766 -3.812336 0.2204895 -5.4356956c-0.08181763 -1.6233597 -0.30142212 -3.034996 -0.7113037 -4.3044624c-0.4098816 -1.2694664 -0.9982605 -2.2707787 -1.7480164 -3.312336c-0.7497864 -1.0415573 -1.7366638 -2.0791779 -2.7506714 -2.937008c-1.0140076 -0.85783005 -2.3521423 -1.6382332 -3.3333435 -2.2099724c-0.98117065 -0.571743 -1.34906 -0.7034149 -2.5538025 -1.2204742c-1.2047119 -0.5170593 -3.45755 -1.3600159 -4.67453 -1.8818893c-1.21698 -0.5218735 -2.555542 -0.6382332 -2.6272888 -1.2493439c-0.071746826 -0.6111107 1.3127747 -1.6815414 2.1968384 -2.417324c0.88409424 -0.7357826 1.8683472 -1.498249 3.107605 -1.9973755c1.2392883 -0.49912262 2.6819763 -0.886261 4.3280945 -0.9973755c1.6461182 -0.11111069 3.8285217 0.108924866 5.5485535 0.33071136c1.7200317 0.22178268 3.4400635 0.53762054 4.7716675 1.0c1.3315735 0.46237946 2.2191467 0.9790001 3.2178345 1.7742767c0.99868774 0.79527664 2.2563477 2.1465454 2.774292 2.9973755c0.5179138 0.8508301 0.61065674 1.349083 0.333313 2.1076126c-0.27734375 0.75852966 -1.3263245 1.8993874 -1.9973755 2.4435692c-0.6710205 0.5441818 -1.2427673 0.78871155 -2.0288696 0.82152176c-0.7860718 0.03281021 -1.6386719 -0.17322922 -2.6876526 -0.62467194c-1.0490112 -0.45144272 -3.9483948 -2.4396324 -3.6062927 -2.0839882c0.34207153 0.3556404 4.216095 2.9418182 5.658783 4.217846c1.442688 1.2760277 2.0170593 2.0883636 2.9973755 3.4383202c0.98031616 1.3499565 2.237091 3.2554703 2.8845215 4.661419c0.6473999 1.4059486 0.9444275 2.5166206 1.0 3.7742767c0.055541992 1.2576561 -0.019256592 2.606739 -0.666687 3.7716522c-0.6473999 1.164917 -1.9230042 2.348648 -3.2178345 3.2178497c-1.2948303 0.86920166 -3.1268616 1.6272964 -4.551178 1.9973755c-1.4243164 0.37007904 -2.9405212 0.42650604 -3.994751 0.22309875c-1.0542603 -0.20341492 -1.5542603 -0.48162842 -2.330719 -1.443573c-0.77645874 -0.96193695 -1.773407 -2.8302689 -2.328064 -4.328083c-0.5546875 -1.4978104 -0.62994385 -3.382763 -1.0 -4.6587906c-0.37008667 -1.2760277 -0.6841736 -2.0721817 -1.2204895 -2.9973755c-0.5363159 -0.9251976 -1.9601746 -2.868332 -1.9973755 -2.5538063c-0.03717041 0.3145218 1.6264343 3.18285 1.774292 4.4409447c0.14785767 1.258091 -0.221344 2.2384071 -0.887146 3.1076126c-0.665802 0.86920166 -1.887146 1.7007866 -3.107605 2.1076088c-1.2204895 0.40682602 -2.9759521 0.68460464 -4.2152405 0.33333588c-1.2392883 -0.35126877 -2.3880005 -1.0905533 -3.220459 -2.4409447c-0.8324585 -1.3503952 -1.4785767 -3.996502 -1.774292 -5.661419c-0.29571533 -1.664917 -0.14785767 -2.9593163 0 -4.328083c0.14785767 -1.3687668 0.42477417 -2.849083 0.887146 -3.8845139c0.46237183 -1.0354347 1.5542297 -1.5144386 1.887146 -2.3280869c0.33288574 -0.8136482 0.7944031 -1.7213478 0.11022949 -2.5538063c-0.6841736 -0.8324585 -2.6246643 -1.7012215 -4.21521 -2.4409447c-1.5905762 -0.7397194 -3.589264 -1.3871384 -5.3280945 -1.9973755c-1.7388611 -0.6102333 -2.978119 -1.108921 -5.1049805 -1.6640396c-2.1268616 -0.55511856 -5.0297546 -1.1854782 -7.656189 -1.6666679c-2.6264038 -0.48118973 -5.3464355 -0.961504 -8.102356 -1.2204723c-2.75589 -0.25896645 -5.4553833 -0.42607117 -8.433075 -0.33333206c-2.9776917 0.0927372 -6.0480957 0.31627274 -9.433075 0.8897648c-3.3849487 0.57349014 -7.251526 1.5157471 -10.876617 2.551178c-3.625122 1.0354347 -7.3783875 2.2742805 -10.874023 3.661419c-3.495636 1.3871384 -6.825897 3.0892372 -10.099731 4.661419c-3.2738342 1.5721779 -6.177185 2.9588776 -9.543304 4.771652c-3.36615 1.8127747 -6.8989563 3.8482056 -10.653564 6.104988c-3.7545776 2.2567787 -8.045471 5.031494 -11.873993 7.4356956c-3.8285217 2.4041977 -7.0651855 4.548115 -11.097137 6.989498c-4.0319214 2.4413834 -8.877502 5.2913437 -13.094482 7.6587906c-4.2169495 2.3674545 -8.526672 4.696419 -12.207336 6.5459366c-3.680664 1.8495178 -6.9356995 3.2747116 -9.876648 4.551178c-2.9409485 1.2764664 -5.0686646 2.2200394 -7.7690125 3.1076126c-2.7003784 0.8875809 -5.566498 1.570427 -8.433075 2.2178497c-2.8665771 0.64741516 -5.7882996 1.2965851 -8.766418 1.6666641c-2.978119 0.37007904 -5.920807 0.5726166 -9.102356 0.5538101c-3.181549 -0.018814087 -6.6946716 -0.25984192 -9.986877 -0.66667175c-3.2922058 -0.4068222 -6.918213 -1.1084824 -9.766418 -1.7742767c-2.8482056 -0.6657944 -4.770752 -1.2401581 -7.322815 -2.2204742c-2.552063 -0.98031616 -5.5109406 -2.4037628 -7.989502 -3.661415c-2.4785767 -1.2576523 -4.495636 -2.4046402 -6.881897 -3.8845139c-2.386261 -1.4798813 -5.216095 -3.4225693 -7.4356995 -4.994751c-2.2195892 -1.5721817 -3.7178345 -2.7554703 -5.8818817 -4.438324c-2.1640472 -1.6828461 -6.2331543 -4.382759 -7.102371 -5.6587906c-0.86920166 -1.2760239 0.8512726 -1.3315811 1.887146 -1.9973755c1.0358734 -0.66578674 2.9776917 -1.9785652 4.328079 -1.9973755c1.3504028 -0.018806458 2.0726166 0.84908295 3.7742767 1.8845139c1.7016754 1.0354385 4.604553 3.069992 6.4356995 4.328087c1.8311462 1.2580948 2.905075 2.1474152 4.551178 3.2204742c1.6461182 1.0730515 3.3836517 2.1452332 5.32547 3.217842c1.9418182 1.0726166 4.3648224 2.3302765 6.3254395 3.2178497c1.9606323 0.8875809 3.329834 1.3862686 5.438324 2.1076126c2.10849 0.721344 4.826782 1.591423 7.212616 2.2204742c2.3858337 0.6290436 4.642151 1.184166 7.102356 1.5538025c2.460205 0.36964417 5.66098 0.645668 7.658783 0.66404724c1.9978333 0.018371582 2.996521 -0.18416595 4.3280945 -0.5538101z" fill-rule="nonzero"></path></g></svg>

