<svg width="562" height="42" viewBox="0 0 562 42" fill="none" xmlns="http://www.w3.org/2000/svg">
<path d="M277.569 41.2948C275.291 40.1039 274.22 38.6786 274.017 36.5663L273.823 34.5427H275.246C277.823 34.5427 279.152 32.4674 279.178 28.4028C279.198 25.3494 278.7 25.1026 275.63 26.6448C273.32 27.8047 271.709 29.7225 270.746 32.4563C270.375 33.5095 269.664 34.8897 269.165 35.5235C268.667 36.1573 268.259 36.7997 268.259 36.9511C268.259 37.4705 265.34 38.6182 264.609 38.3862C262.889 37.8402 262.013 34.7019 262.939 32.4021C264.169 29.3464 269.817 25.9394 277.873 23.394C278.151 23.3061 278.379 22.9282 278.379 22.5542C278.379 21.9347 277.83 21.8998 272.206 22.1613C261.214 22.6722 255.229 23.8485 253.889 25.7606C253.116 26.8636 253.11 28.8544 253.875 29.9468C254.602 30.9859 254.328 31.3051 252.708 31.3021C249.053 31.2955 246.45 29.4271 244.575 25.4645C243.075 22.2932 243.156 18.8607 244.79 16.3137C246.412 13.7862 250.088 11.4699 252.478 11.4699C254.325 11.4699 254.317 11.4467 253.556 14.5688C253.416 15.1406 253.749 15.9942 254.522 17.0452C255.548 18.4401 256.005 18.7053 258.034 19.0816C260.706 19.5774 264.334 19.8543 272.847 20.2124L278.851 20.4649L278.716 19.519C278.605 18.7446 278.251 18.5178 276.759 18.2682C275.757 18.1005 274.573 17.7943 274.128 17.5877C268.185 14.8302 266.857 14.055 265.259 12.4111C263.788 10.8979 263.414 10.1982 263.185 8.53851C262.926 6.65491 262.987 6.44391 264.051 5.52981C265.01 4.70581 265.459 4.58932 266.828 4.80972C268.886 5.14108 269.09 5.37261 270.438 8.91042C271.047 10.5083 271.808 12.0333 272.128 12.2994C272.449 12.5655 272.711 12.9991 272.711 13.2629C272.711 14.4834 278.34 17.4063 278.885 16.4691C279.056 16.1752 278.903 14.5995 278.209 9.53813C278.024 8.18893 276.836 7.06833 275.282 6.77673C274.531 6.63582 273.813 6.35238 273.686 6.14685C273.246 5.43559 274.845 1.29695 275.801 0.670247C276.333 0.321747 277.762 0.0348001 279.12 0.00356007C282.24 -0.0681599 284.199 0.943467 285.048 3.06456C286.102 5.69936 285.899 6.45586 283.932 7.20676C281.541 8.11993 280.957 9.85036 281.177 15.3731C281.263 17.5284 283.971 16.4979 286.867 13.2085C287.764 12.1895 288.498 11.2061 288.498 11.0231C288.498 10.1503 290.297 6.02726 290.973 5.35146C291.491 4.83366 292.312 4.58836 293.528 4.58836C294.994 4.58836 295.477 4.78785 296.181 5.68246C296.876 6.56578 296.99 7.09226 296.772 8.41476C296.43 10.493 296.337 10.6527 294.155 12.9425C292.956 14.2009 291.317 15.3114 289.307 16.2261C287.638 16.9863 285.955 17.7754 285.569 17.9797C285.182 18.1839 284.453 18.3535 283.949 18.3566C281.695 18.3702 280.255 19.5165 281.765 20.0959C282.531 20.3899 291.09 20.0083 293.558 19.57C294.671 19.3723 297.221 18.9885 299.225 18.717C305.535 17.8622 308.386 15.5276 306.612 12.6662C305.976 11.6396 306.691 11.0802 308.652 11.0711C311.853 11.0562 315.499 14.3165 316.63 18.2047C317.221 20.2348 317.249 20.8988 316.826 22.8037C316.229 25.4986 315.225 27.5488 313.899 28.7865C312.594 30.0038 309.093 31.2599 307.731 30.9995C306.482 30.7609 305.816 29.4285 306.394 28.3269C307.025 27.1235 306.403 24.9495 305.177 24.0767C303.411 22.8193 300.923 22.3541 294.824 22.1404C291.679 22.0303 287.55 21.8416 285.65 21.7212C282.901 21.547 282.092 21.6244 281.698 22.0993C280.993 22.9483 281.665 23.3975 285.067 24.3517C291.767 26.2312 295.023 28.1579 297.013 31.4207C297.801 32.7128 298.038 34.6872 297.557 35.9412C297.419 36.3015 296.784 36.8663 296.146 37.1963C295.135 37.7191 294.809 37.722 293.604 37.2187C292.26 36.657 291.89 36.1684 290.156 32.6603C288.331 28.9703 283.611 25.0963 281.791 25.7949C281.233 26.0088 281.157 26.4006 281.364 27.9717C282.113 33.6343 282.664 34.6385 285.06 34.7036C287.231 34.7625 287.629 35.5987 286.55 37.8291C284.94 41.1536 280.545 42.85 277.57 41.2948L277.569 41.2948ZM156.279 34.6028C154.399 33.2408 153.481 31.9296 152.277 28.8874C151.72 27.478 151.187 26.699 150.836 26.7822C147.837 27.4946 145.845 27.6321 143.551 27.2847C137.582 26.3809 135.695 25.9659 134.142 25.2154C133.24 24.78 132.182 24.4238 131.789 24.4238C131.396 24.4238 130.656 24.2587 130.144 24.0569C126.688 22.6931 122.391 21.8624 118.09 21.7266C114.607 21.6166 42.8114 21.1189 38.6444 21.1759C38.2548 21.1812 37.0708 21.2004 36.0133 21.2184C34.9558 21.2365 27.442 21.2377 19.3163 21.2212C11.1903 21.2046 3.71429 21.2994 2.70229 21.4318C1.30019 21.6154 0.73629 21.5197 0.32919 21.0292C-0.11409 20.495 -0.11111 20.3525 0.34676 20.19C1.02984 19.9477 22.2588 19.4584 25.5898 19.6082C26.9256 19.6683 28.656 19.6892 29.4353 19.6547C30.2145 19.6202 31.7628 19.6262 32.876 19.6679C34.6217 19.7334 42.2454 19.7266 52.306 19.6507C56.9109 19.616 79.321 19.4895 80.641 19.4908C81.3089 19.4916 84.0412 19.5038 86.7128 19.5182C89.3844 19.5326 93.0274 19.4585 94.8085 19.3535C98.7923 19.1187 98.2985 19.1295 106.142 19.1061C117.861 19.0712 120.612 18.8927 126.008 17.8169C131.82 16.6581 132.087 16.5851 134.575 15.4748C135.518 15.0535 136.635 14.7089 137.055 14.7089C137.476 14.7089 138.502 14.4238 139.336 14.0754C141.098 13.3392 146.543 13.2605 149.05 13.9351C152.745 14.9295 152.895 14.9171 152.895 13.6179C152.895 12.9672 153.163 12.0814 153.49 11.6492C153.817 11.217 154.09 10.5788 154.097 10.2308C154.117 9.24742 156.163 7.51936 158.128 6.82606C160.315 6.05449 163.481 6.37222 164.468 7.46221C165.04 8.09447 165.069 8.39639 164.656 9.39321C163.928 11.1521 164.491 14.2511 165.795 15.6527C166.963 16.9089 169.085 17.9471 170.486 17.9471C170.978 17.9471 171.517 18.0837 171.684 18.2507C171.851 18.4177 174.477 18.5715 177.52 18.5926C182.657 18.6281 190.84 18.9762 195.6 19.3618C197.445 19.5112 213.606 19.9975 220.865 20.122C224.512 20.1845 225.21 20.9554 222.033 21.4125C220.853 21.5822 213.239 21.7525 205.113 21.791C196.987 21.8294 188.79 21.9912 186.898 22.1505C185.005 22.3098 181.18 22.5013 178.397 22.576C173.875 22.6975 171.314 23.1446 170.099 24.0249C169.876 24.1862 169.044 24.5275 168.248 24.7834C166.56 25.3264 164.577 27.3055 163.837 29.185C163.422 30.2406 163.417 30.8606 163.813 32.275C164.612 35.128 164.037 35.7577 160.633 35.7577C158.242 35.7577 157.662 35.6038 156.28 34.6027L156.279 34.6028ZM159.745 23.3758C161.139 22.2028 161.304 21.1023 160.41 18.9606C159.374 16.4829 155.459 16.537 153.997 19.0493C153.126 20.5448 153.297 21.4487 154.78 23.2116C156.109 24.791 157.989 24.8531 159.745 23.3759L159.745 23.3758ZM191.475 34.0378C189.771 32.2417 189.613 30.5865 190.914 28.1968C192.509 25.2689 194.791 24.257 199.805 24.254C202.543 24.2524 204.354 24.4755 205.921 25.0077C209.703 26.2919 215.774 28.5018 217.113 29.0821C217.814 29.3858 219.044 29.7574 219.846 29.9078C221.613 30.2394 221.717 29.7705 220.291 27.9008C217.4 24.11 221.758 21.3419 225.582 24.5408C227.934 26.509 230.247 27.4123 232.105 27.0886C235.752 26.4534 237.952 24.2703 238.206 21.035C238.723 14.4531 231.658 11.0547 226.788 15.5429C223.559 18.5191 220.725 18.8428 219.694 16.3531C219.296 15.3931 219.354 14.9715 220.066 13.6471C220.821 12.2451 220.84 12.0634 220.247 11.9377C219.882 11.8604 218.467 12.2683 217.103 12.8442C209.949 15.8653 202.431 17.3866 197.861 16.7384C194.965 16.3277 193.874 15.8918 191.958 14.3805C190.909 13.5537 190.771 13.1915 190.771 11.2777C190.771 10.086 191.018 8.64839 191.321 8.08299C192.339 6.17959 196.306 5.06799 197.395 6.38059C197.676 6.71959 197.775 7.51169 197.633 8.30329C197.311 10.1094 198.44 12.2053 200.248 13.1571C201.957 14.0569 204.616 14.1026 207.332 13.2788C208.442 12.9421 209.717 12.5896 210.166 12.4954C212.191 12.0701 217.149 10.5189 218.065 10.0237C219.961 8.99814 223.523 8.41054 227.577 8.45434C232.779 8.51047 234.52 8.83886 236.132 10.0683C236.851 10.6173 237.632 11.0664 237.867 11.0664C238.681 11.0664 241.141 16.6506 241.394 19.0721C241.99 24.7696 239.714 29.0251 234.698 31.5921C232.157 32.8925 231.23 33.148 228.626 33.2656C225.368 33.4127 223.702 33.146 217.862 31.5416C213.94 30.4642 212.095 29.873 210.15 29.071C208.1 28.2253 201.727 27.4712 200.238 27.8981C198.383 28.4302 197.425 29.8936 197.345 32.3186C197.309 33.4311 197.106 34.569 196.895 34.8473C196.684 35.1256 195.659 35.3532 194.617 35.3532C193.005 35.3532 192.536 35.1569 191.474 34.0378L191.475 34.0378ZM361.845 34.8676C361.578 34.6005 361.359 33.4614 361.359 32.3364C361.359 30.5632 361.188 30.1295 360.074 29.0779C358.97 28.0359 358.458 27.8581 356.444 27.8168C353.118 27.7486 349.006 28.6643 341.727 31.094C336.94 32.6917 334.54 33.064 330.648 32.8119C326.676 32.5546 325.138 31.8648 322.598 29.2023C319.697 26.1618 318.764 19.7 320.642 15.6653C322.726 11.1899 325.934 8.90863 330.797 8.44373C333.117 8.22197 334.402 8.36295 337.881 9.22137C340.219 9.79805 342.769 10.5742 343.548 10.9462C345.52 11.8876 352.348 13.3038 356.6 13.6533C358.198 13.7846 358.819 13.6139 360.295 12.6361C362.103 11.4384 362.573 10.4368 362.573 7.77797C362.573 6.55357 362.858 6.45657 366.294 6.50987C367.748 6.53245 369.844 8.07077 369.92 9.17167C370.062 11.2264 369.738 12.5737 368.758 14.0074C367.319 16.1133 364.585 16.9062 359.132 16.7991C354.678 16.7116 350.944 15.9133 345.572 13.8998C341.539 12.388 339.484 11.758 339.273 11.9687C339.19 12.0519 339.328 12.792 339.58 13.6135C340.171 15.5373 339.594 16.8855 337.934 17.4642C336.864 17.8372 336.514 17.7491 335.158 16.767C333.042 15.2342 331.87 14.6383 330.257 14.2745C327.377 13.625 323.329 15.9102 322.664 18.5614C322.19 20.4505 322.717 23.583 323.656 24.4578C324.133 24.9022 324.523 25.4201 324.523 25.6087C324.523 25.7973 325.186 26.2663 325.997 26.6509C328.185 27.689 330.754 27.3046 333.674 25.5024C334.995 24.687 336.275 24.0199 336.519 24.0199C337.368 24.0199 339.095 25.7036 339.095 26.5314C339.095 26.9899 338.716 27.9785 338.253 28.7283C337.471 29.9933 337.462 30.0916 338.134 30.0916C338.532 30.0916 340.913 29.2691 343.426 28.2638C348.873 26.0841 356.28 24.3869 360.752 24.2934C363.61 24.2336 364.209 24.354 365.855 25.3205C368.4 26.8138 369.207 28.1301 368.909 30.3001C368.562 32.8376 367.916 33.9508 366.366 34.6904C364.731 35.4699 362.533 35.5562 361.845 34.868L361.845 34.8676ZM395.914 34.6261C395.647 34.4557 395.486 33.1231 395.514 31.3055C395.555 28.661 395.416 28.0277 394.437 26.3933C393.274 24.4491 393.141 24.3796 388.277 23.1596C384.616 22.2413 373.018 21.8226 353.794 21.9148C337.163 21.9945 335.036 21.8722 336.017 20.8916C336.28 20.6288 346.345 20.0534 354.68 19.8246C365.298 19.5333 373.326 19.1847 374.312 18.9719C374.869 18.8519 377.835 18.5718 380.904 18.3496C388.983 17.7645 392.175 16.8252 394.644 14.3066C396.139 12.7811 396.17 12.6858 396.17 9.6714C396.17 6.6884 396.205 6.5804 397.284 6.1623C397.906 5.92117 399.347 5.83944 400.552 5.97697C405.403 6.53084 407.113 8.22367 407.229 12.5856C407.3 15.2244 407.336 15.3129 408.29 15.2065C408.834 15.1459 409.818 14.8271 410.478 14.4981C411.878 13.7993 415.582 13.7253 419.041 14.3272C420.377 14.5597 422.526 14.9104 423.818 15.1066C425.109 15.3028 426.763 15.816 427.494 16.247C429.631 17.5076 441.508 19.6799 445.385 19.5192C448.917 19.3727 479.557 19.9246 479.907 20.1409C480.268 20.3641 499.163 20.4561 502.224 20.2496C503.226 20.182 504.262 20.2866 504.526 20.4821C504.807 20.6905 505.33 20.664 505.789 20.418C506.3 20.1447 507.032 20.13 507.889 20.3758C508.612 20.5833 510.229 20.6516 511.482 20.5275C515.143 20.165 519.685 20.1394 519.896 20.48C520.003 20.6529 520.281 20.6766 520.514 20.5325C520.747 20.3885 522.693 20.3137 524.838 20.3663C526.982 20.4189 532.38 20.5148 536.833 20.5794C547.78 20.7382 561 21.1761 561.652 21.4013C561.944 21.5024 562.07 21.7677 561.932 21.9909C561.665 22.4244 511.64 22.2247 503.033 21.7557C500.473 21.6162 498.196 21.5269 497.974 21.5572C497.751 21.5875 484.909 21.6603 469.434 21.719C453.96 21.7776 441.065 21.9704 440.778 22.1473C440.491 22.3243 438.944 22.619 437.339 22.8021C433.996 23.1835 430.865 23.9438 425.111 25.7703C421.455 26.931 420.613 27.0495 416.408 26.9947C413.486 26.9566 411.012 26.7 409.762 26.3051C408.666 25.9593 407.619 25.7697 407.434 25.8838C407.249 25.9979 407.098 27.2353 407.098 28.6335C407.098 30.9524 407.009 31.2162 406.086 31.6368C405.53 31.8904 405.074 32.2516 405.074 32.4396C405.074 32.6275 404.209 33.2185 403.152 33.753C401.232 34.7231 396.885 35.2475 395.912 34.6262L395.914 34.6261ZM403.189 23.5131C403.734 23.0122 404.386 21.9718 404.637 21.2011C405.068 19.8761 405.016 19.7231 403.681 18.3878C402.027 16.7332 400.21 16.5158 398.479 17.7651C396.567 19.145 396.523 21.3521 398.368 23.3422C399.66 24.737 401.774 24.8119 403.189 23.5131L403.189 23.5131ZM228.959 23.9054C227.3 22.7877 226.583 21.0901 227.29 19.9571C227.56 19.5257 227.78 18.8124 227.78 18.3719C227.78 16.6224 231.873 15.9891 233.483 17.4894C234.726 18.6471 235.027 21.7297 234.008 22.8562C233.234 23.7115 231.357 24.8288 230.694 24.8288C230.493 24.8288 229.712 24.4133 228.959 23.9055V23.9054ZM327.449 24.0174C325.716 22.9613 325.133 21.4481 325.71 19.51C326.911 15.4785 332.981 16.0307 333.006 20.1737C333.019 22.3488 332.556 23.2256 330.965 24.0375C329.059 25.0096 329.076 25.0097 327.449 24.0175L327.449 24.0174Z" fill="white"/>
</svg>
